<svg xmlns="http://www.w3.org/2000/svg" xmlns:xlink="http://www.w3.org/1999/xlink" fill="none" version="1.1" width="15.9755859375" height="16" viewBox="0 0 15.9755859375 16"><g><g><path d="M3.06411,15.999996155700684L2.61796,13.382036155700684L0,12.935896155700684L4.72911,8.206786155700684L7.79321,11.269106155700683L3.06411,15.999996155700684Z" fill="#FCCA4C" fill-opacity="1"/></g><g><path d="M2.59298,13.242841387634277L0.114212,12.819901387634278L0,12.935891387634278L2.61796,13.382041387634278L2.59298,13.242841387634277ZM7.63082,11.106711387634277L3.01592,15.721611387634276L3.06232,16.000001387634278L7.79321,11.269107387634277L7.63082,11.106711387634277Z" fill="#FDDA82" fill-opacity="1"/></g><g><path d="M12.913139069213866,15.999996155700684L13.359279069213867,13.382036155700684L15.975459069213867,12.935896155700684L11.246359069213867,8.206786155700684L8.182249069213867,11.269106155700683L12.913139069213866,15.999996155700684Z" fill="#FCCA4C" fill-opacity="1"/></g><g><path d="M4.632742374343872,8.32275549708252L2.391322374343872,10.56417669708252L2.634023374343872,11.17984669708252C2.805342374343872,11.61171669708252,3.139056374343872,11.95613669708252,3.565572374343872,12.14173669708252L5.921202374343872,13.16250669708252L7.695062374343872,11.38864669708252L4.632742374343872,8.32275549708252ZM11.314162374343873,8.27635669708252L13.555622374343873,10.51777669708252L13.312922374343872,11.133446697082519C13.141522374343872,11.565316697082519,12.807822374343871,11.909736697082518,12.381342374343872,12.09533669708252L10.025712374343872,13.11610669708252L8.251842374343873,11.342246697082519L11.314162374343873,8.27635669708252Z" fill="#F99403" fill-opacity="1"/></g><g><path d="M10.777009069213868,10.962156155700683L8.298246069213867,11.385106155700683L8.182249069213867,11.269106155700683L10.800209069213867,10.822966155700684L10.777009069213868,10.962156155700683ZM15.698849069213868,12.984076155700684L11.198169069213867,8.483394155700683L11.246359069213867,8.206786155700684L15.975459069213867,12.935896155700684L15.698849069213868,12.984076155700684Z" fill="#FDDA82" fill-opacity="1"/></g><g><path d="M14.504925242424012,6.14384L13.109425242424011,2.61397C12.938125242424011,2.1821,12.60442524242401,1.83768,12.177925242424012,1.65208L8.696195242424011,0.144124C8.27146524242401,-0.0396868,7.789635242424011,-0.0486096,7.357765242424011,0.122709L3.8278952424240114,1.51824C3.3960252424240114,1.68956,3.051605242424011,2.02328,2.866005242424011,2.44979L1.3580492424240111,5.93148C1.1742384424240113,6.35621,1.1653156424240112,6.83804,1.3366342424240112,7.26991L2.7321652424240113,10.7998C2.9034852424240114,11.2317,3.2372052424240114,11.5761,3.6637152424240114,11.7617L7.145405242424011,13.2696C7.570135242424011,13.4534,8.05196524242401,13.4624,8.48383524242401,13.291L12.01372524242401,11.8955C12.445625242424011,11.7242,12.790025242424012,11.3905,12.97562524242401,10.964L14.483525242424012,7.48049C14.667325242424011,7.05576,14.67452524242401,6.57393,14.504925242424012,6.14384Z" fill="#8BCF70" fill-opacity="1"/></g><g><path d="M13.088061333847046,6.705906497344971Q13.088061333847046,6.8327764973449705,13.081861333847046,6.959496497344971Q13.075661333847046,7.086216497344971,13.063161333847045,7.212476497344971Q13.050761333847046,7.338726497344971,13.032161333847046,7.464226497344971Q13.013561333847045,7.58972649734497,12.988761333847046,7.7141564973449706Q12.964061333847045,7.838586497344971,12.933161333847046,7.961656497344971Q12.902361333847045,8.08472649734497,12.865561333847046,8.206136497344971Q12.828761333847046,8.32753649734497,12.785961333847046,8.44698649734497Q12.743231333847046,8.56644649734497,12.694681333847045,8.68365649734497Q12.646131333847046,8.80086649734497,12.591891333847046,8.915556497344971Q12.537641333847047,9.03024649734497,12.477841333847046,9.142136497344971Q12.418031333847045,9.25402649734497,12.352811333847045,9.362846497344972Q12.287581333847045,9.47166649734497,12.217101333847046,9.577156497344971Q12.146611333847046,9.68264649734497,12.071041333847045,9.784546497344971Q11.995461333847047,9.88644649734497,11.914981333847045,9.984526497344971Q11.834491333847046,10.082596497344971,11.749291333847045,10.17659649734497Q11.664091333847045,10.270606497344971,11.574381333847047,10.360316497344972Q11.484671333847047,10.45002649734497,11.390661333847046,10.53522649734497Q11.296661333847046,10.62042649734497,11.198591333847046,10.70091649734497Q11.100511333847045,10.781396497344971,10.998611333847046,10.85697649734497Q10.896711333847046,10.93254649734497,10.791221333847046,11.00303649734497Q10.685731333847045,11.07351649734497,10.576911333847047,11.13874649734497Q10.468091333847045,11.20396649734497,10.356201333847046,11.26377649734497Q10.244311333847046,11.323586497344971,10.129621333847046,11.377826497344971Q10.014931333847045,11.432066497344971,9.897721333847045,11.48061649734497Q9.780511333847045,11.52916649734497,9.661051333847045,11.571896497344971Q9.541601333847046,11.614696497344971,9.420191333847047,11.65149649734497Q9.298791333847046,11.68829649734497,9.175721333847047,11.719096497344971Q9.052651333847045,11.74999649734497,8.928221333847045,11.774696497344971Q8.803791333847045,11.79949649734497,8.678291333847046,11.818096497344971Q8.552791333847047,11.83669649734497,8.426531333847045,11.84909649734497Q8.300281333847046,11.861596497344971,8.173561333847047,11.86779649734497Q8.046841333847045,11.87399649734497,7.919971333847046,11.87399649734497Q7.793101333847046,11.87399649734497,7.666381333847046,11.86779649734497Q7.539671333847046,11.861596497344971,7.413411333847046,11.84909649734497Q7.287151333847046,11.83669649734497,7.161651333847046,11.818096497344971Q7.036161333847046,11.79949649734497,6.911721333847046,11.774696497344971Q6.787291333847046,11.74999649734497,6.6642213338470455,11.719096497344971Q6.541151333847045,11.68829649734497,6.419751333847046,11.65149649734497Q6.298341333847046,11.614696497344971,6.178891333847046,11.571896497344971Q6.059431333847046,11.52916649734497,5.942221333847046,11.48061649734497Q5.825011333847046,11.432066497344971,5.710321333847046,11.377826497344971Q5.595631333847046,11.323576497344972,5.483741333847046,11.26377649734497Q5.3718513338470455,11.20396649734497,5.263031333847046,11.13874649734497Q5.154211333847046,11.07351649734497,5.0487213338470465,11.00303649734497Q4.943231333847046,10.93254649734497,4.841331333847046,10.85697649734497Q4.739431333847046,10.781396497344971,4.641361333847046,10.70091649734497Q4.543281333847046,10.62042649734497,4.449281333847046,10.53522649734497Q4.355281333847046,10.45002649734497,4.265561333847046,10.360316497344972Q4.175851333847046,10.270606497344971,4.090651333847045,10.17659649734497Q4.005451333847046,10.082596497344971,3.924971333847046,9.984526497344971Q3.844481333847046,9.88644649734497,3.768911333847046,9.784546497344971Q3.693330333847046,9.68264649734497,3.6228443338470457,9.577156497344971Q3.552359333847046,9.47166649734497,3.487135333847046,9.362846497344972Q3.4219113338470457,9.25402649734497,3.3621053338470457,9.142136497344971Q3.3022993338470457,9.03024649734497,3.248055333847046,8.915556497344971Q3.1938113338470457,8.80086649734497,3.145260333847046,8.68365649734497Q3.0967093338470457,8.56644649734497,3.053967333847046,8.44698649734497Q3.0112263338470457,8.32753649734497,2.974398333847046,8.206126497344972Q2.937569333847046,8.08472649734497,2.906742333847046,7.961656497344971Q2.8759163338470457,7.838586497344971,2.851164833847046,7.7141564973449706Q2.826413633847046,7.58972649734497,2.807797933847046,7.464226497344971Q2.789182333847046,7.338726497344971,2.776746833847046,7.212466497344971Q2.764311433847046,7.086216497344971,2.758086203847046,6.959496497344971Q2.751860985298046,6.8327764973449705,2.751860985298046,6.705906497344971Q2.751860985298046,6.579036497344971,2.758086203847046,6.452316497344971Q2.764311433847046,6.325606497344971,2.776746833847046,6.199346497344971Q2.789182333847046,6.0730864973449705,2.807797933847046,5.947586497344971Q2.826413633847046,5.822096497344971,2.851164833847046,5.697656497344971Q2.8759163338470457,5.5732264973449706,2.906742333847046,5.45015649734497Q2.937569333847046,5.32708649734497,2.974398333847046,5.205686497344971Q3.0112263338470457,5.084276497344971,3.053967333847046,4.964826497344971Q3.0967093338470457,4.845366497344971,3.145260333847046,4.728156497344971Q3.1938113338470457,4.610946497344971,3.248055333847046,4.496256497344971Q3.3022993338470457,4.381566497344971,3.3621053338470457,4.269676497344971Q3.4219113338470457,4.15778649734497,3.487135333847046,4.048966497344971Q3.552359333847046,3.940146497344971,3.6228443338470457,3.834656497344971Q3.693330333847046,3.7291664973449707,3.768911333847046,3.6272664973449706Q3.844481333847046,3.5253664973449705,3.924971333847046,3.4272964973449707Q4.005451333847046,3.3292164973449707,4.090651333847045,3.235216497344971Q4.175851333847046,3.1412164973449705,4.265561333847046,3.0514964973449707Q4.355281333847046,2.9617864973449706,4.449281333847046,2.8765864973449706Q4.543281333847046,2.7913864973449707,4.641361333847046,2.710906497344971Q4.739431333847046,2.630416497344971,4.841331333847046,2.554846497344971Q4.943231333847046,2.479265497344971,5.0487213338470465,2.4087804973449707Q5.154211333847046,2.3382954973449706,5.263031333847046,2.2730704973449707Q5.3718513338470455,2.2078464973449705,5.483741333847046,2.1480404973449705Q5.595631333847046,2.0882344973449705,5.710321333847046,2.0339904973449707Q5.825011333847046,1.9797464973449708,5.942221333847046,1.9311954973449708Q6.059431333847046,1.8826444973449707,6.178891333847046,1.8399034973449706Q6.298341333847046,1.7971624973449707,6.419751333847046,1.7603334973449707Q6.541151333847045,1.7235054973449708,6.6642213338470455,1.6926784973449707Q6.787291333847046,1.6618514973449707,6.911721333847046,1.6371002973449706Q7.036161333847046,1.6123491973449706,7.161651333847046,1.5937334973449706Q7.287151333847046,1.5751177973449706,7.413411333847046,1.5626823973449706Q7.539671333847046,1.5502468973449708,7.666381333847046,1.5440217173449706Q7.793101333847046,1.5377964973449707,7.919971333847046,1.5377964973449707Q8.046841333847045,1.5377964973449707,8.173561333847047,1.5440217173449706Q8.300281333847046,1.5502468973449708,8.426541333847046,1.5626823973449706Q8.552791333847047,1.5751177973449706,8.678291333847046,1.5937334973449706Q8.803791333847045,1.6123491973449706,8.928221333847045,1.6371002973449706Q9.052651333847045,1.6618514973449707,9.175721333847047,1.6926784973449707Q9.298791333847046,1.7235054973449708,9.420201333847046,1.7603334973449707Q9.541601333847046,1.7971624973449707,9.661051333847045,1.8399034973449706Q9.780511333847045,1.8826444973449707,9.897721333847045,1.9311954973449708Q10.014931333847045,1.9797464973449708,10.129621333847046,2.0339904973449707Q10.244311333847046,2.0882344973449705,10.356201333847046,2.1480404973449705Q10.468091333847045,2.2078464973449705,10.576911333847047,2.2730704973449707Q10.685731333847045,2.3382954973449706,10.791221333847046,2.4087804973449707Q10.896711333847046,2.479265497344971,10.998611333847046,2.554846497344971Q11.100511333847045,2.630416497344971,11.198591333847046,2.710906497344971Q11.296661333847046,2.7913864973449707,11.390661333847046,2.8765864973449706Q11.484671333847047,2.9617864973449706,11.574381333847047,3.0514964973449707Q11.664091333847045,3.1412164973449705,11.749291333847045,3.235216497344971Q11.834491333847046,3.3292164973449707,11.914981333847045,3.4272964973449707Q11.995461333847047,3.5253664973449705,12.071041333847045,3.6272664973449706Q12.146611333847046,3.7291664973449707,12.217101333847046,3.834656497344971Q12.287581333847045,3.940146497344971,12.352811333847045,4.048966497344971Q12.418031333847045,4.15778649734497,12.477841333847046,4.269676497344971Q12.537651333847046,4.381566497344971,12.591891333847046,4.496256497344971Q12.646131333847046,4.610946497344971,12.694681333847045,4.728156497344971Q12.743231333847046,4.845366497344971,12.785961333847046,4.964826497344971Q12.828761333847046,5.084276497344971,12.865561333847046,5.205686497344971Q12.902361333847045,5.32708649734497,12.933161333847046,5.45015649734497Q12.964061333847045,5.5732264973449706,12.988761333847046,5.697656497344971Q13.013561333847045,5.822096497344971,13.032161333847046,5.947586497344971Q13.050761333847046,6.0730864973449705,13.063161333847045,6.199346497344971Q13.075661333847046,6.325606497344971,13.081861333847046,6.452316497344971Q13.088061333847046,6.579036497344971,13.088061333847046,6.705906497344971Z" fill="#E7FDE9" fill-opacity="1"/></g><g><path d="M7.918158637390137,1.5396090745925903C7.953848637390137,1.5396090745925903,7.987758637390137,1.5396090745925903,8.023448637390135,1.5413936445925904C5.218108637390136,1.5984998745925902,2.9624126373901367,3.8880990745925903,2.9624126373901367,6.707719074592591C2.9624126373901367,9.52733907459259,5.218108637390136,11.81690907459259,8.023448637390135,11.872309074592591C7.987758637390137,11.872309074592591,7.953848637390137,11.87400907459259,7.918158637390137,11.87400907459259C5.064638637390137,11.87400907459259,2.7500486373901367,9.56124907459259,2.7500486373901367,6.705939074592591C2.7500486373901367,3.8506290745925904,5.062848637390137,1.5396090745925903,7.918158637390137,1.5396090745925903Z" fill="#ABDE97" fill-opacity="1"/></g><g><path d="M7.921743132232666,1.5396090745925903C7.886051932232666,1.5396090745925903,7.852145032232666,1.5396090745925903,7.816453702232666,1.5413936445925904C10.620009132232667,1.5967152745925903,12.877489132232666,3.8880990745925903,12.877489132232666,6.705939074592591C12.877489132232666,9.52376907459259,10.620009132232667,11.81690907459259,7.814669132232666,11.872309074592591C7.850360532232666,11.872309074592591,7.884267332232666,11.87400907459259,7.919959132232666,11.87400907459259C10.773489132232665,11.87400907459259,13.088069132232665,9.56124907459259,13.088069132232665,6.705939074592591C13.088069132232665,3.8506290745925904,10.775269132232665,1.5396090745925903,7.921743132232666,1.5396090745925903Z" fill="#FAFDFF" fill-opacity="1"/></g><g><path d="M12.486079767074585,6.70599376121521Q12.486079767074585,6.81810376121521,12.480579767074586,6.93009376121521Q12.475079767074584,7.04207376121521,12.464089767074585,7.15365376121521Q12.453099767074585,7.26522376121521,12.436659767074586,7.37613376121521Q12.420209767074585,7.48703376121521,12.398339767074585,7.59699376121521Q12.376469767074585,7.70696376121521,12.349239767074584,7.81571376121521Q12.321999767074585,7.92447376121521,12.289459767074584,8.03176376121521Q12.256919767074585,8.139053761215209,12.219159767074585,8.24461376121521Q12.181389767074585,8.35018376121521,12.138499767074585,8.45376376121521Q12.095599767074585,8.557343761215211,12.047679767074586,8.658703761215211Q11.999749767074585,8.760053761215211,11.946909767074585,8.85893376121521Q11.894069767074585,8.95781376121521,11.836439767074586,9.053973761215211Q11.778819767074586,9.15014376121521,11.716539767074584,9.24336376121521Q11.654259767074585,9.33658376121521,11.587489767074585,9.42664376121521Q11.520719767074585,9.51669376121521,11.449609767074586,9.60336376121521Q11.378499767074585,9.69003376121521,11.303219767074584,9.77310376121521Q11.227939767074584,9.85617376121521,11.148679767074585,9.93545376121521Q11.069419767074585,10.01473376121521,10.986359767074585,10.09002376121521Q10.903309767074585,10.16532376121521,10.816659767074585,10.23645376121521Q10.730009767074584,10.30757376121521,10.639979767074585,10.37436376121521Q10.549939767074585,10.44115376121521,10.456739767074584,10.50344376121521Q10.363539767074585,10.56573376121521,10.267389767074585,10.62337376121521Q10.171249767074585,10.68101376121521,10.072389767074585,10.73386376121521Q9.973529767074584,10.78671376121521,9.872199767074585,10.83465376121521Q9.770869767074585,10.88258376121521,9.667309767074585,10.92549376121521Q9.563749767074585,10.96839376121521,9.458209767074585,11.00616376121521Q9.352669767074584,11.04394376121521,9.245399767074584,11.07648376121521Q9.138139767074584,11.10903376121521,9.029399767074585,11.13627376121521Q8.920669767074585,11.16351376121521,8.810729767074584,11.18538376121521Q8.700789767074586,11.20726376121521,8.589909767074584,11.22371376121521Q8.479029767074586,11.24016376121521,8.367479767074585,11.25115376121521Q8.255929767074585,11.26214376121521,8.143969767074584,11.26764376121521Q8.032009767074584,11.27314376121521,7.919919767074585,11.27314376121521Q7.807829767074585,11.27314376121521,7.695869767074585,11.26764376121521Q7.5839097670745845,11.26214376121521,7.472359767074585,11.25115376121521Q7.360799767074585,11.24016376121521,7.249919767074585,11.22371376121521Q7.1390397670745855,11.20726376121521,7.029099767074586,11.18539376121521Q6.919169767074585,11.16351376121521,6.810429767074584,11.13627376121521Q6.701699767074585,11.10903376121521,6.594429767074585,11.07648376121521Q6.487169767074585,11.04394376121521,6.381629767074585,11.00616376121521Q6.276089767074585,10.96839376121521,6.172519767074585,10.92549376121521Q6.068959767074585,10.88258376121521,5.967629767074585,10.83465376121521Q5.866299767074585,10.78671376121521,5.767449767074584,10.73386376121521Q5.668589767074585,10.68101376121521,5.572439767074584,10.62337376121521Q5.476299767074584,10.56573376121521,5.383099767074585,10.50344376121521Q5.289889767074585,10.44115376121521,5.199859767074585,10.37436376121521Q5.109829767074585,10.30757376121521,5.023179767074585,10.23645376121521Q4.936529767074585,10.16532376121521,4.853469767074585,10.09003376121521Q4.770419767074585,10.01473376121521,4.691159767074585,9.93545376121521Q4.611889767074585,9.85617376121521,4.536619767074585,9.77310376121521Q4.461339767074585,9.69003376121521,4.390229767074585,9.60336376121521Q4.319118767074585,9.51669376121521,4.252344767074585,9.42664376121521Q4.185570767074585,9.33658376121521,4.123295767074585,9.24336376121521Q4.061019767074585,9.15014376121521,4.003392767074585,9.053973761215211Q3.945765767074585,8.95781376121521,3.892925767074585,8.85893376121521Q3.840084767074585,8.760053761215211,3.792158767074585,8.658703761215211Q3.744232767074585,8.557343761215211,3.701336767074585,8.45376376121521Q3.658440767074585,8.35018376121521,3.620677767074585,8.24461376121521Q3.582914767074585,8.139053761215209,3.550376767074585,8.03176376121521Q3.517837767074585,7.92447376121521,3.490600767074585,7.81571376121521Q3.463364767074585,7.70696376121521,3.441496467074585,7.59699376121521Q3.419628267074585,7.48703376121521,3.403180767074585,7.37613376121521Q3.386733367074585,7.26522376121521,3.375746367074585,7.15365376121521Q3.364759317074585,7.04207376121521,3.359259177074585,6.93009376121521Q3.353759037074585,6.81810376121521,3.353759037074585,6.70599376121521Q3.353759037074585,6.59387376121521,3.359259177074585,6.48189376121521Q3.364759317074585,6.36990376121521,3.375746367074585,6.25833376121521Q3.386733367074585,6.14675376121521,3.403180767074585,6.03584376121521Q3.419628267074585,5.92494376121521,3.441496467074585,5.81498376121521Q3.463364767074585,5.70501376121521,3.490600767074585,5.59626376121521Q3.517837767074585,5.48750376121521,3.550376767074585,5.3802137612152094Q3.582914767074585,5.2729237612152104,3.620677767074585,5.16736376121521Q3.658440767074585,5.06179376121521,3.701336767074585,4.958213761215211Q3.744232767074585,4.85463376121521,3.792158767074585,4.75328376121521Q3.840084767074585,4.65192376121521,3.892925767074585,4.553043761215211Q3.945765767074585,4.454163761215209,4.003392767074585,4.35800376121521Q4.061019767074585,4.26183376121521,4.123295767074585,4.1686137612152105Q4.185570767074585,4.07539376121521,4.252344767074585,3.9853337612152098Q4.319118767074585,3.89528376121521,4.390229767074585,3.8086137612152102Q4.461339767074585,3.72194376121521,4.536619767074585,3.6388737612152102Q4.611889767074585,3.55580376121521,4.691159767074585,3.4765237612152102Q4.770419767074585,3.39724376121521,4.853469767074585,3.3219537612152097Q4.936529767074585,3.24665376121521,5.023179767074585,3.1755337612152097Q5.109829767074585,3.10440376121521,5.199859767074585,3.0376157612152097Q5.289889767074585,2.97082776121521,5.383099767074585,2.90853876121521Q5.476299767074584,2.84624876121521,5.572439767074584,2.78860976121521Q5.668589767074585,2.73096976121521,5.767449767074584,2.67811776121521Q5.866299767074585,2.6252657612152097,5.967629767074585,2.5773297612152097Q6.068959767074585,2.52939276121521,6.172519767074585,2.48648776121521Q6.276089767074585,2.44358276121521,6.381629767074585,2.4058107612152098Q6.487169767074585,2.36803976121521,6.594429767074585,2.33549376121521Q6.701699767074585,2.30294776121521,6.810429767074584,2.27570576121521Q6.919169767074585,2.24846376121521,7.029099767074586,2.22659036121521Q7.1390397670745855,2.20471736121521,7.249919767074585,2.18826636121521Q7.360799767074585,2.17181526121521,7.472359767074585,2.16082586121521Q7.5839097670745845,2.14983646121521,7.695869767074585,2.14433510121521Q7.807829767074585,2.13883376121521,7.919919767074585,2.13883376121521Q8.032009767074584,2.13883376121521,8.143969767074584,2.14433510121521Q8.255929767074585,2.14983646121521,8.367479767074585,2.16082586121521Q8.479029767074586,2.17181526121521,8.589909767074584,2.18826636121521Q8.700789767074586,2.20471736121521,8.810729767074584,2.22659036121521Q8.920669767074585,2.24846376121521,9.029399767074585,2.27570576121521Q9.138139767074584,2.30294776121521,9.245399767074584,2.33549376121521Q9.352669767074584,2.36803976121521,9.458209767074585,2.4058107612152098Q9.563749767074585,2.44358276121521,9.667309767074585,2.48648776121521Q9.770869767074585,2.52939276121521,9.872199767074585,2.5773297612152097Q9.973529767074584,2.6252657612152097,10.072389767074585,2.67811776121521Q10.171249767074585,2.73096976121521,10.267389767074585,2.78860976121521Q10.363539767074585,2.84624876121521,10.456739767074584,2.90853776121521Q10.549939767074585,2.97082776121521,10.639979767074585,3.0376157612152097Q10.730009767074584,3.10440376121521,10.816659767074585,3.1755337612152097Q10.903309767074585,3.24665376121521,10.986359767074585,3.3219537612152097Q11.069419767074585,3.39724376121521,11.148679767074585,3.4765237612152102Q11.227939767074584,3.55580376121521,11.303219767074584,3.6388737612152102Q11.378499767074585,3.72195376121521,11.449609767074586,3.8086137612152102Q11.520719767074585,3.89528376121521,11.587489767074585,3.9853337612152098Q11.654259767074585,4.07539376121521,11.716539767074584,4.1686137612152105Q11.778819767074586,4.26183376121521,11.836439767074586,4.35800376121521Q11.894069767074585,4.454163761215209,11.946909767074585,4.553043761215211Q11.999749767074585,4.65192376121521,12.047679767074586,4.75327376121521Q12.095599767074585,4.85463376121521,12.138499767074585,4.958213761215211Q12.181389767074585,5.06179376121521,12.219159767074585,5.16736376121521Q12.256919767074585,5.2729237612152104,12.289459767074584,5.3802137612152094Q12.321999767074585,5.48750376121521,12.349229767074585,5.59626376121521Q12.376469767074585,5.70501376121521,12.398339767074585,5.81498376121521Q12.420209767074585,5.92494376121521,12.436659767074586,6.0358537612152094Q12.453099767074585,6.14675376121521,12.464089767074585,6.25833376121521Q12.475079767074584,6.36990376121521,12.480579767074586,6.48189376121521Q12.486079767074585,6.59387376121521,12.486079767074585,6.70599376121521Z" fill="#ABDE97" fill-opacity="1"/></g><g><path d="M9.725919656066894,9.275740972442627L7.960979656066895,8.385240972442627L6.228159656066895,9.334630972442627L6.228159656066895,9.097290972442627L6.527969656066895,7.382310972442626L5.0913896560668945,6.0278309724426276L5.0913896560668945,5.7904809724426265L7.040139656066895,5.7101709724426275L7.884239656066894,3.923820972442627L8.789019656066895,5.679840972442626L10.748469656066895,5.692330972442627L10.748469656066895,5.931460972442627L9.358289656066894,7.334130972442627L9.725919656066894,9.036610972442627L9.725919656066894,9.275740972442627Z" fill="#70C250" fill-opacity="1"/></g><g><path d="M9.725919656066894,9.036529684677124L7.960979656066895,8.147809684677124L6.228159656066895,9.097199684677124L6.527969656066895,7.144879684677123L5.0913896560668945,5.790399684677125L7.040139656066895,5.472739684677125L7.884239656066894,3.686389684677124L8.789019656066895,5.4424096846771235L10.748469656066895,5.692249684677124L9.358289656066894,7.094919684677124L9.725919656066894,9.036529684677124Z" fill="#FFF9F0" fill-opacity="1"/></g><g><path d="M7.88424015045166,3.686389684677124L8.49813215045166,5.586959684677124L10.13458015045166,5.833229684677124L9.18876015045166,7.064579684677124L9.72592015045166,9.036529684677124L9.35829015045166,7.094919684677124L10.74847015045166,5.692249684677124L8.78901715045166,5.4424096846771235L7.88424015045166,3.686389684677124Z" fill="#E7FDE9" fill-opacity="1"/></g><g><path d="M12.390258457946778,2.2373048952054977Q13.139778457946777,3.329454895205498,13.557368457946778,4.230664895205498C13.976738457946777,5.131874895205498,14.226578457946777,6.2971948952054975,14.289038457946777,6.5327648952054975C14.351498457946779,6.768324895205498,14.669158457946779,6.579154895205498,14.538878457946776,6.241874895205497Q14.408608457946777,5.904594895205498,13.198668457946777,2.8458448952054978Q13.057688457946778,2.2694248952054976,12.579428457946777,1.9731848952054978Q12.302818457946778,1.7982948952054978,12.390258457946778,2.2373048952054977ZM8.216153457946778,0.43667289520549774Q9.228008457946778,0.7007888952054977,10.022138457946777,0.9881048952054977C10.818058457946778,1.2754248952054978,11.685358457946776,1.8161448952054977,11.867378457946778,1.9196448952054976C12.049408457946777,2.023154895205498,12.108298457946777,1.7233448952054977,11.824548457946777,1.6002148952054978Q11.540808457946778,1.4770748952054977,8.958534457946778,0.37778189520549776Q8.674787457946778,0.09760489520549774,8.223291457946777,0.20289449520549774Q7.962744457946777,0.26178529520549776,8.216153457946778,0.43667289520549774ZM13.958898457946777,7.592794895205498Q13.673368457946777,8.527904895205499,13.343218457946778,9.327394895205497C13.013078457946778,10.128664895205498,12.402748457946778,10.937034895205498,12.286758457946778,11.110134895205498C12.170758457946778,11.283234895205497,12.493768457946778,11.433234895205498,12.634748457946777,11.153034895205497Q12.775728457946776,10.872834895205498,14.030278457946778,8.320894895205498Q14.239078457946778,7.880114895205498,14.217658457946778,7.378644895205498Q14.203378457946776,7.064564895205498,13.958898457946777,7.592794895205498Z" fill="#ABDE97" fill-opacity="1"/></g><g><path d="M13.359297052368165,13.382037162780762L13.205824052368165,13.419513062780762L12.756113052368164,15.842957162780761L12.913155052368165,15.999997162780762L13.359297052368165,13.382037162780762Z" fill="#FFFFFF" fill-opacity="1"/></g></g></svg>