<svg xmlns="http://www.w3.org/2000/svg" xmlns:xlink="http://www.w3.org/1999/xlink" fill="none" version="1.1" width="131.64599609375" height="111" viewBox="0 0 131.64599609375 111"><g><g><path d="M73.15985221862793,109.99979277420044C102.29895221862793,109.99979277420044,125.92235221862794,86.37649277420044,125.92235221862794,57.13339277420044C125.92235221862794,27.89029277420044,102.19485221862793,4.2667927742004395,73.15985221862793,4.2667927742004395C44.02085221862793,4.2667927742004395,20.39735221862793,27.89029277420044,20.39735221862793,57.13339277420044C20.39735221862793,86.37649277420044,44.02085221862793,109.99979277420044,73.15985221862793,109.99979277420044Z" fill="#F4F5F7" fill-opacity="1"/><path d="M122.69735221862793,78.11959277420044Q126.92235221862794,68.10739277420043,126.92235221862794,57.13339277420044Q126.92235221862794,46.16369277420044,122.68235221862793,36.14619277420044Q118.59135221862793,26.48189277420044,111.13635221862793,19.026792774200437Q103.68945221862793,11.57985277420044,94.04325221862793,7.49407277420044Q84.06285221862794,3.2667927742004395,73.15985221862793,3.2667927742004395Q62.22075221862793,3.2667927742004395,52.23295221862793,7.49397277420044Q42.582852218627934,11.57825277420044,35.14385221862793,19.02729277420044Q27.70263221862793,26.47869277420044,23.62250221862793,36.14729277420044Q19.39735221862793,46.15949277420044,19.39735221862793,57.13339277420044Q19.39735221862793,68.10729277420043,23.62249221862793,78.11959277420044Q27.70259221862793,87.78809277420044,35.14385221862793,95.23949277420044Q42.58275221862793,102.68859277420044,52.23295221862793,106.77279277420044Q62.22065221862793,110.99979277420044,73.15985221862793,110.99979277420044Q84.09905221862793,110.99979277420044,94.08685221862793,106.77279277420044Q103.73705221862792,102.68859277420044,111.17585221862792,95.23949277420044Q118.61715221862794,87.78819277420044,122.69735221862793,78.11959277420044ZM120.84035221862793,36.92579277420044Q124.92235221862794,46.56949277420044,124.92235221862794,57.13339277420044Q124.92235221862794,67.70269277420044,120.85435221862792,77.34199277420043Q116.92625221862792,86.65099277420045,109.76075221862793,93.82629277420044Q102.59775221862793,100.99899277420045,93.30735221862793,104.93079277420044Q83.69325221862793,108.99979277420044,73.15985221862793,108.99979277420044Q62.62655221862793,108.99979277420044,53.01245221862793,104.93079277420044Q43.72195221862793,100.99899277420045,36.559052218627926,93.82629277420044Q29.39352221862793,86.65099277420045,25.46514221862793,77.34199277420043Q21.39735221862793,67.70269277420044,21.39735221862793,57.13339277420044Q21.39735221862793,46.56419277420044,25.46514221862793,36.92479277420044Q29.39355221862793,27.61579277420044,36.559052218627926,20.44049277420044Q43.72195221862793,13.26785277420044,53.01245221862793,9.335802774200438Q62.62655221862793,5.2667927742004395,73.15985221862793,5.26678877420044Q83.65675221862793,5.26678877420044,93.26315221862792,9.335692774200439Q102.55075221862793,13.26954277420044,109.72215221862793,20.44099277420044Q116.90165221862793,27.62039277420044,120.84035221862793,36.92579277420044Z" fill-rule="evenodd" fill="#D6DCE8" fill-opacity="1"/></g><g><path d="M126.75497977050782,18.211918440856934Q126.75497977050782,18.316668440856933,126.7498397705078,18.421278440856934Q126.74469977050781,18.525898440856935,126.73442977050782,18.630138440856932Q126.72415977050781,18.734378440856933,126.7087897705078,18.837988440856932Q126.69341977050782,18.941598440856936,126.67298977050781,19.044328440856933Q126.6525597705078,19.147058440856934,126.62709977050781,19.24866844085693Q126.6016497705078,19.350268440856933,126.57124977050782,19.450508440856932Q126.54083977050782,19.550738440856932,126.50554977050781,19.649358440856933Q126.47026977050781,19.747978440856933,126.4301797705078,19.844748440856932Q126.39009977050782,19.94151844085693,126.34531977050781,20.03620844085693Q126.30052977050781,20.13089844085693,126.25115977050781,20.223268440856934Q126.20177977050781,20.315648440856933,126.14792977050782,20.405488440856935Q126.09407977050782,20.495328440856934,126.03588977050781,20.582428440856933Q125.97769977050781,20.669518440856933,125.91529977050781,20.753648440856935Q125.85290977050781,20.837778440856933,125.78645977050782,20.918748440856934Q125.72000977050782,20.999718440856935,125.64966977050781,21.077328440856935Q125.57932977050781,21.154938440856935,125.50525977050782,21.228998440856934Q125.43119977050782,21.303068440856933,125.3535797705078,21.373408440856934Q125.27596977050781,21.443748440856933,125.19500977050781,21.510198440856932Q125.11403977050782,21.576648440856935,125.02990977050781,21.639038440856933Q124.94577977050781,21.701438440856933,124.85868977050781,21.759628440856932Q124.77158977050782,21.817818440856932,124.6817497705078,21.871668440856933Q124.59190977050781,21.925518440856933,124.4995297705078,21.974898440856933Q124.40715977050782,22.024268440856936,124.31246977050782,22.069058440856935Q124.21777977050782,22.113838440856934,124.12100977050781,22.153918440856934Q124.02423977050782,22.194008440856933,123.92561977050781,22.229288440856934Q123.82699977050781,22.264578440856933,123.72676977050781,22.294988440856933Q123.62652977050782,22.325388440856933,123.52492977050781,22.350838440856933Q123.42331977050782,22.376298440856935,123.32058977050781,22.396728440856933Q123.21785977050781,22.417158440856934,123.11424977050781,22.432528440856935Q123.01063977050781,22.44789844085693,122.90639977050782,22.458168440856934Q122.80215977050781,22.468438440856936,122.69753977050782,22.473578440856933Q122.59292977050781,22.478718440856934,122.48817977050781,22.478718440856934Q122.3834397705078,22.478718440856934,122.27881977050781,22.473578440856933Q122.17419977050781,22.468438440856936,122.06995977050781,22.458168440856934Q121.96571977050782,22.44789844085693,121.86210977050781,22.432528440856935Q121.75849977050781,22.417158440856934,121.65576977050782,22.396728440856933Q121.55303977050781,22.376298440856935,121.45143977050782,22.350838440856933Q121.34982977050781,22.325388440856933,121.24959977050781,22.294988440856933Q121.14935977050781,22.264578440856933,121.05073977050782,22.229288440856934Q120.9521197705078,22.194008440856933,120.85534977050781,22.153918440856934Q120.75857977050781,22.113838440856934,120.66388977050781,22.069058440856935Q120.56920977050781,22.024268440856936,120.4768297705078,21.974898440856933Q120.38444977050781,21.925518440856933,120.29460977050782,21.871668440856933Q120.20476977050781,21.817818440856932,120.1176797705078,21.759628440856932Q120.03058977050782,21.701438440856933,119.94645977050781,21.639038440856933Q119.86232977050781,21.576648440856935,119.78135977050782,21.510198440856932Q119.70038977050781,21.443748440856933,119.62277977050782,21.373408440856934Q119.54516977050781,21.303068440856933,119.4710997705078,21.228998440856934Q119.39703977050782,21.154938440856935,119.32669977050782,21.077318440856935Q119.25635977050781,20.999708440856935,119.18990677050782,20.918748440856934Q119.12345777050781,20.837778440856933,119.06106277050782,20.753648440856935Q118.99866677050781,20.669518440856933,118.94047377050781,20.582428440856933Q118.88228177050782,20.495328440856934,118.82843177050782,20.405488440856935Q118.7745827705078,20.315648440856933,118.72520677050781,20.223268440856934Q118.67583077050782,20.13089844085693,118.6310477705078,20.03620844085693Q118.58626377050781,19.94151844085693,118.5461797705078,19.844748440856932Q118.50609577050781,19.747978440856933,118.47080877050782,19.649358440856933Q118.43552177050782,19.550738440856932,118.40511677050782,19.450508440856932Q118.37471077050782,19.350268440856933,118.34925977050781,19.24866844085693Q118.32380977050781,19.147058440856934,118.30337497050782,19.044328440856933Q118.28294047050781,18.941598440856936,118.26757137050781,18.837988440856932Q118.25220227050781,18.734378440856933,118.2419355705078,18.630138440856932Q118.23166887050782,18.525898440856935,118.22652931050781,18.421278440856934Q118.22138977050781,18.316668440856933,118.22138977050781,18.211918440856934Q118.22138977050781,18.107178440856934,118.22652931050781,18.002558440856934Q118.23166887050782,17.897938440856933,118.2419355705078,17.793698440856932Q118.25220227050781,17.689458440856935,118.26757137050781,17.585848440856935Q118.28294047050781,17.482238440856932,118.30337497050782,17.379508440856934Q118.32380977050781,17.276778440856933,118.34925977050781,17.175178440856932Q118.37471077050782,17.073568440856935,118.40511677050782,16.973338440856935Q118.43552177050782,16.873098440856936,118.47080877050782,16.77447844085693Q118.50609577050781,16.675858440856935,118.5461797705078,16.579088440856935Q118.58626377050781,16.482318440856933,118.6310477705078,16.387628440856933Q118.67583077050782,16.292948440856932,118.72520677050781,16.200568440856934Q118.7745827705078,16.108188440856935,118.82843177050782,16.018348440856933Q118.88228177050782,15.928508440856934,118.94047377050781,15.841418440856934Q118.99866677050781,15.754328440856934,119.06106277050782,15.670198440856934Q119.12345777050781,15.586068440856934,119.18990677050782,15.505098440856933Q119.25635977050781,15.424128440856933,119.32669977050782,15.346518440856933Q119.39703977050782,15.268908440856933,119.4710997705078,15.194838440856934Q119.54516977050781,15.120778440856935,119.62277977050782,15.050438440856933Q119.70038977050781,14.980098440856933,119.78135977050782,14.913645440856934Q119.86232977050781,14.847196440856933,119.94645977050781,14.784801440856933Q120.03058977050782,14.722405440856933,120.1176797705078,14.664212440856934Q120.20476977050781,14.606020440856934,120.29460977050782,14.552170440856933Q120.38444977050781,14.498321440856934,120.4768297705078,14.448945440856933Q120.56920977050781,14.399569440856933,120.66388977050781,14.354786440856934Q120.75857977050781,14.310002440856934,120.85534977050781,14.269918440856934Q120.9521197705078,14.229834440856933,121.05073977050782,14.194547440856933Q121.14935977050781,14.159260440856933,121.24959977050781,14.128855440856933Q121.34982977050781,14.098449440856934,121.45143977050782,14.072998440856933Q121.55303977050781,14.047548440856934,121.65576977050782,14.027113640856934Q121.75849977050781,14.006679140856933,121.86210977050781,13.991310040856934Q121.96571977050782,13.975940940856933,122.06995977050781,13.965674240856934Q122.17419977050781,13.955407540856934,122.27881977050781,13.950267980856934Q122.3834397705078,13.945128440856934,122.48817977050781,13.945128440856934Q122.59292977050781,13.945128440856934,122.69753977050782,13.950267980856934Q122.80215977050781,13.955407540856934,122.90639977050782,13.965674240856934Q123.01063977050781,13.975940940856933,123.11424977050781,13.991310040856934Q123.21785977050781,14.006679140856933,123.32058977050781,14.027113640856934Q123.42331977050782,14.047548440856934,123.52492977050781,14.072998440856933Q123.62652977050782,14.098449440856934,123.72676977050781,14.128855440856933Q123.82699977050781,14.159260440856933,123.92561977050781,14.194547440856933Q124.02423977050782,14.229834440856933,124.12100977050781,14.269918440856934Q124.21777977050782,14.310002440856934,124.31246977050782,14.354786440856934Q124.40715977050782,14.399569440856933,124.4995297705078,14.448945440856933Q124.59190977050781,14.498321440856934,124.6817497705078,14.552170440856933Q124.77158977050782,14.606020440856934,124.85868977050781,14.664212440856934Q124.94577977050781,14.722405440856933,125.02990977050781,14.784801440856933Q125.11403977050782,14.847196440856933,125.19500977050781,14.913645440856934Q125.27597977050782,14.980098440856933,125.35358977050781,15.050438440856933Q125.43119977050782,15.120778440856935,125.50525977050782,15.194838440856934Q125.57932977050781,15.268908440856933,125.64966977050781,15.346518440856933Q125.72000977050782,15.424128440856933,125.78645977050782,15.505098440856933Q125.85290977050781,15.586068440856934,125.91529977050781,15.670198440856934Q125.97769977050781,15.754328440856934,126.03588977050781,15.841418440856934Q126.09407977050782,15.928508440856934,126.14792977050782,16.018348440856933Q126.20177977050781,16.108188440856935,126.25115977050781,16.200568440856934Q126.30052977050781,16.292948440856932,126.34531977050781,16.387628440856933Q126.39009977050782,16.482318440856933,126.4301797705078,16.579088440856935Q126.47026977050781,16.675858440856935,126.50554977050781,16.77447844085693Q126.54083977050782,16.873098440856936,126.57124977050782,16.973338440856935Q126.6016497705078,17.073568440856935,126.62709977050781,17.175178440856932Q126.6525597705078,17.276778440856933,126.67298977050781,17.379508440856934Q126.69341977050782,17.482238440856932,126.7087897705078,17.585848440856935Q126.72415977050781,17.689458440856935,126.73442977050782,17.793698440856932Q126.74469977050781,17.897938440856933,126.7498397705078,18.002558440856934Q126.75497977050782,18.107178440856934,126.75497977050782,18.211918440856934Z" fill="#F1F3F9" fill-opacity="1"/></g><g><path d="M131.6461746020508,2.91391Q131.6461746020508,3.05706,131.63215460205078,3.19952Q131.61812460205078,3.34198,131.5901946020508,3.48238Q131.5622746020508,3.62278,131.5207246020508,3.75977Q131.4791846020508,3.89676,131.42441460205077,4.02901Q131.36963460205078,4.16127,131.3021646020508,4.28751Q131.23470460205078,4.41376,131.15518460205078,4.53279Q131.07566460205078,4.65181,130.98487460205078,4.76247Q130.89407460205078,4.87313,130.79286460205077,4.97435Q130.6916646020508,5.07557,130.58102460205077,5.16639Q130.47038460205079,5.2572,130.35138460205079,5.33673Q130.23237460205078,5.41626,130.1061546020508,5.48374Q129.97992460205077,5.55122,129.84769460205078,5.60601Q129.7154646020508,5.66079,129.57850460205077,5.70234Q129.44154460205078,5.7439,129.3011646020508,5.77182Q129.16079460205077,5.79975,129.01835460205078,5.81378Q128.87591460205078,5.82782,128.73279460205077,5.82782Q128.5896646020508,5.82782,128.44723460205077,5.81378Q128.30479460205078,5.79975,128.16441460205078,5.77182Q128.0240446020508,5.7439,127.88708460205078,5.70234Q127.75011460205079,5.66079,127.61788460205078,5.60601Q127.48565460205079,5.55122,127.35943460205078,5.48374Q127.23320460205078,5.41626,127.11420460205078,5.33673Q126.99519460205079,5.2572,126.88455460205078,5.16639Q126.77392060205078,5.07557,126.67271560205079,4.97435Q126.57151060205078,4.87313,126.48071260205079,4.76247Q126.38991460205078,4.65181,126.31039860205078,4.53279Q126.23088260205078,4.41376,126.16341360205078,4.28751Q126.09594460205078,4.16127,126.04117260205078,4.02901Q125.98640160205078,3.89676,125.94485360205078,3.75977Q125.90330690205079,3.62278,125.87538450205078,3.48238Q125.84746210205078,3.34198,125.83343340205079,3.19952Q125.81940460205078,3.05706,125.81940460205078,2.91391Q125.81940460205078,2.77076,125.83343340205079,2.62829Q125.84746210205078,2.48583,125.87538450205078,2.34543Q125.90330690205079,2.20503,125.94485360205078,2.06804Q125.98640160205078,1.93106,126.04117260205078,1.7988Q126.09594460205078,1.66655,126.16341360205078,1.5403Q126.23088260205078,1.41405,126.31039860205078,1.29503Q126.38991460205078,1.176,126.48071260205079,1.06534Q126.57151060205078,0.954687,126.67271560205079,0.853464Q126.77392060205078,0.752241,126.88455460205078,0.661427Q126.99519460205079,0.570612,127.11420460205078,0.491082Q127.23320460205078,0.411551,127.35943460205078,0.34407Q127.48565460205079,0.27659,127.61788460205078,0.221808Q127.75011460205079,0.167026,127.88708460205078,0.125472Q128.0240446020508,0.0839173,128.16441460205078,0.0559899Q128.30479460205078,0.0280625,128.44723460205077,0.0140313Q128.5896646020508,0,128.73279460205077,0Q128.87591460205078,0,129.01835460205078,0.0140313Q129.16079460205077,0.0280625,129.3011646020508,0.0559899Q129.44154460205078,0.0839173,129.57850460205077,0.125472Q129.7154646020508,0.167026,129.84769460205078,0.221808Q129.97992460205077,0.27659,130.1061546020508,0.34407Q130.23237460205078,0.411551,130.35138460205079,0.491082Q130.47038460205079,0.570612,130.58102460205077,0.661427Q130.6916646020508,0.752241,130.79286460205077,0.853464Q130.89407460205078,0.954687,130.98487460205078,1.06534Q131.07566460205078,1.176,131.15518460205078,1.29503Q131.23470460205078,1.41405,131.3021646020508,1.5403Q131.36963460205078,1.66655,131.42441460205077,1.7988Q131.4791846020508,1.93106,131.5207246020508,2.06804Q131.5622746020508,2.20503,131.5901946020508,2.34543Q131.61812460205078,2.48583,131.63215460205078,2.62829Q131.6461746020508,2.77076,131.6461746020508,2.91391Z" fill="#F1F3F9" fill-opacity="1"/></g><g><path d="M26.121103462524413,19.460741130981447Q26.121103462524413,19.603891130981445,26.107063462524415,19.746351130981445Q26.093033462524414,19.888811130981445,26.065103462524412,20.029211130981444Q26.037183462524414,20.169611130981444,25.995623462524414,20.306601130981445Q25.954073462524413,20.443591130981446,25.899293462524415,20.575841130981445Q25.844503462524415,20.708101130981447,25.777023462524415,20.834341130981446Q25.709543462524415,20.960591130981445,25.630013462524413,21.079621130981444Q25.550483462524415,21.198641130981446,25.459673462524414,21.309301130981446Q25.368853462524413,21.419961130981445,25.267633462524415,21.521181130981446Q25.166413462524414,21.622401130981444,25.055753462524414,21.713221130981445Q24.945093462524415,21.804031130981446,24.826073462524413,21.883561130981445Q24.707043462524414,21.963091130981446,24.580793462524415,22.030571130981446Q24.454553462524416,22.098051130981446,24.322293462524414,22.152841130981447Q24.190043462524415,22.207621130981444,24.053053462524414,22.249171130981445Q23.916063462524413,22.290731130981445,23.775663462524413,22.318651130981443Q23.635263462524414,22.346581130981445,23.492803462524414,22.360611130981447Q23.350343462524414,22.374651130981444,23.207193462524415,22.374651130981444Q23.064043462524413,22.374651130981444,22.921573462524414,22.360611130981447Q22.779113462524414,22.346581130981445,22.638713462524414,22.318651130981443Q22.498313462524415,22.290731130981445,22.361323462524414,22.249171130981445Q22.224343462524413,22.207621130981444,22.092083462524414,22.152841130981447Q21.959833462524415,22.098051130981446,21.833583462524413,22.030571130981446Q21.707333462524414,21.963091130981446,21.588313462524415,21.883561130981445Q21.469283462524412,21.804031130981446,21.358623462524413,21.713221130981445Q21.247970462524414,21.622401130981444,21.146747462524413,21.521181130981446Q21.045524462524416,21.419961130981445,20.954710462524414,21.309301130981446Q20.863895462524415,21.198641130981446,20.784365462524413,21.079621130981444Q20.704834462524413,20.960591130981445,20.637353462524413,20.834341130981446Q20.569873462524413,20.708101130981447,20.515091462524413,20.575841130981445Q20.460309462524414,20.443591130981446,20.418755462524413,20.306601130981445Q20.377200762524414,20.169611130981444,20.349273362524414,20.029211130981444Q20.321345962524415,19.888811130981445,20.307314762524413,19.746351130981445Q20.293283462524414,19.603891130981445,20.293283462524414,19.460741130981447Q20.293283462524414,19.317591130981445,20.307314762524413,19.175121130981445Q20.321345962524415,19.032661130981445,20.349273362524414,18.892261130981446Q20.377200762524414,18.751861130981446,20.418755462524413,18.614871130981445Q20.460309462524414,18.477891130981444,20.515091462524413,18.345631130981445Q20.569873462524413,18.213381130981446,20.637353462524413,18.087131130981444Q20.704834462524413,17.960881130981445,20.784365462524413,17.841861130981446Q20.863895462524415,17.722831130981444,20.954710462524414,17.612171130981444Q21.045524462524416,17.501518130981445,21.146747462524413,17.400295130981444Q21.247970462524414,17.299072130981447,21.358623462524413,17.208258130981445Q21.469283462524412,17.117443130981446,21.588313462524415,17.037913130981444Q21.707333462524414,16.958382130981445,21.833583462524413,16.890901130981444Q21.959833462524415,16.823421130981444,22.092083462524414,16.768639130981445Q22.224343462524413,16.713857130981445,22.361323462524414,16.672303130981444Q22.498313462524415,16.630748430981445,22.638713462524414,16.602821030981445Q22.779113462524414,16.574893630981446,22.921573462524414,16.560862430981445Q23.064043462524413,16.546831130981445,23.207193462524415,16.546831130981445Q23.350343462524414,16.546831130981445,23.492803462524414,16.560862430981445Q23.635263462524414,16.574893630981446,23.775663462524413,16.602821030981445Q23.916063462524413,16.630748430981445,24.053053462524414,16.672303130981444Q24.190043462524415,16.713857130981445,24.322293462524414,16.768639130981445Q24.454553462524416,16.823421130981444,24.580793462524415,16.890901130981444Q24.707043462524414,16.958382130981445,24.826073462524413,17.037913130981444Q24.945093462524415,17.117443130981446,25.055753462524414,17.208258130981445Q25.166413462524414,17.299072130981447,25.267633462524415,17.400295130981444Q25.368853462524413,17.501518130981445,25.459673462524414,17.612171130981444Q25.550483462524415,17.722831130981444,25.630013462524413,17.841861130981446Q25.709543462524415,17.960881130981445,25.777023462524415,18.087131130981444Q25.844503462524415,18.213381130981446,25.899293462524415,18.345631130981445Q25.954073462524413,18.477891130981444,25.995623462524414,18.614871130981445Q26.037183462524414,18.751861130981446,26.065103462524412,18.892261130981446Q26.093033462524414,19.032661130981445,26.107063462524415,19.175121130981445Q26.121103462524413,19.317591130981445,26.121103462524413,19.460741130981447Z" fill="#F1F3F9" fill-opacity="1"/></g><g><path d="M10.8231,73.15988442138672Q10.8231,73.29273442138671,10.8166,73.42541442138672Q10.81,73.55810442138672,10.797,73.69031442138672Q10.784,73.82251442138671,10.7645,73.95392442138672Q10.745,74.08533442138672,10.7191,74.21562442138672Q10.6932,74.34592442138671,10.6609,74.47478442138672Q10.6286,74.60364442138672,10.5901,74.73077442138671Q10.5515,74.85790442138672,10.5067,74.98298442138672Q10.462,75.10806442138671,10.4112,75.23079442138672Q10.3603,75.35352442138672,10.3035,75.47361442138671Q10.2467,75.59371442138672,10.1841,75.71087442138672Q10.1215,75.82803442138672,10.0532,75.94197442138672Q9.98488,76.05592442138672,9.91107,76.16637442138672Q9.83727,76.27683442138672,9.75813,76.38353442138671Q9.679,76.49024442138672,9.59472,76.59293442138672Q9.51044,76.69562442138673,9.42123,76.79405442138672Q9.33202,76.89248442138671,9.23808,76.98642442138672Q9.14414,77.08036442138672,9.04571,77.16957442138671Q8.94728,77.25878442138672,8.84459,77.34306442138671Q8.7419,77.42734442138672,8.63519,77.50647442138671Q8.52849,77.58561442138672,8.41803,77.65941442138671Q8.30758,77.73322442138672,8.19363,77.80154442138672Q8.07968,77.86984442138672,7.96252,77.93244442138672Q7.84537,77.99504442138672,7.72527,78.05184442138672Q7.60518,78.10864442138671,7.48245,78.15954442138671Q7.35972,78.21034442138672,7.23464,78.25504442138671Q7.10956,78.29984442138672,6.98243,78.33844442138673Q6.8553,78.37694442138672,6.72644,78.40924442138672Q6.59757,78.44154442138672,6.46728,78.46744442138672Q6.33699,78.49334442138672,6.20558,78.51284442138672Q6.07417,78.53234442138672,5.94197,78.54534442138672Q5.80976,78.55834442138672,5.67707,78.56494442138671Q5.54439,78.57144442138672,5.41154,78.57144442138672Q5.2787,78.57144442138672,5.14601,78.56494442138671Q5.01332,78.55834442138672,4.88112,78.54534442138672Q4.74891,78.53234442138672,4.6175,78.51284442138672Q4.4861,78.49334442138672,4.3558,78.46744442138672Q4.22551,78.44154442138672,4.09664,78.40924442138672Q3.96778,78.37694442138672,3.84065,78.33844442138673Q3.71353,78.29984442138672,3.58845,78.25504442138671Q3.46337,78.21034442138672,3.34063,78.15954442138671Q3.2179,78.10864442138671,3.09781,78.05184442138672Q2.97772,77.99504442138672,2.86056,77.93244442138672Q2.7434,77.86984442138672,2.62945,77.80154442138672Q2.51551,77.73322442138672,2.40505,77.65941442138671Q2.29459,77.58561442138672,2.18789,77.50647442138671Q2.08119,77.42734442138672,1.9785,77.34306442138671Q1.8758,77.25878442138672,1.77737,77.16957442138671Q1.67894,77.08036442138672,1.585,76.98642442138672Q1.49107,76.89248442138671,1.40185,76.79405442138672Q1.31264,76.69562442138673,1.22836,76.59293442138672Q1.14409,76.49024442138672,1.06495,76.38353442138671Q0.985814,76.27683442138672,0.912009,76.16637442138672Q0.838204,76.05592442138672,0.769908,75.94197442138672Q0.701611,75.82802442138671,0.638988,75.71086442138672Q0.576365,75.59371442138672,0.519566,75.47361442138671Q0.462767,75.35352442138672,0.411929,75.23079442138672Q0.361091,75.10806442138671,0.316337,74.98298442138672Q0.271582,74.85790442138672,0.233019,74.73077442138671Q0.194456,74.60364442138672,0.162177,74.47478442138672Q0.129898,74.34591442138672,0.103981,74.21562442138672Q0.0780643,74.08533442138672,0.0585718,73.95392442138672Q0.0390792,73.82251442138671,0.0260581,73.69031442138672Q0.0130369,73.55810442138672,0.00651844,73.42541442138672Q0,73.29273442138671,0,73.15988442138672Q0,73.02704442138672,0.00651844,72.89435442138672Q0.0130369,72.76166442138671,0.0260581,72.62946442138671Q0.0390792,72.49725442138671,0.0585718,72.36584442138673Q0.0780643,72.23444442138671,0.103981,72.10414442138672Q0.129898,71.97385442138672,0.162177,71.84498442138671Q0.194456,71.71612442138672,0.233019,71.58899442138672Q0.271582,71.46187442138672,0.316337,71.33679442138671Q0.361091,71.21171442138672,0.411929,71.08897442138672Q0.462767,70.96624442138672,0.519566,70.84615442138671Q0.576365,70.72606442138672,0.638988,70.60890442138673Q0.701611,70.49174442138671,0.769908,70.37779442138672Q0.838204,70.26385442138672,0.912009,70.15339442138672Q0.985814,70.04293442138672,1.06495,69.93623442138671Q1.14409,69.82953442138673,1.22836,69.72684442138672Q1.31264,69.62414442138672,1.40185,69.52571442138672Q1.49107,69.42728442138672,1.585,69.33334442138671Q1.67894,69.23941442138671,1.77737,69.15019442138671Q1.8758,69.06098442138672,1.9785,68.97670442138671Q2.08119,68.89243442138672,2.18789,68.81329442138671Q2.29459,68.73415842138672,2.40505,68.66035342138672Q2.51551,68.58654842138672,2.62945,68.51825242138672Q2.7434,68.44995542138672,2.86056,68.38733242138672Q2.97772,68.32470942138671,3.09781,68.26791042138672Q3.2179,68.21111142138672,3.34063,68.16027342138672Q3.46337,68.10943542138672,3.58845,68.06468142138672Q3.71353,68.01992642138671,3.84065,67.98136342138672Q3.96778,67.94280042138672,4.09664,67.91052142138672Q4.22551,67.87824242138672,4.3558,67.85232542138672Q4.4861,67.82640872138671,4.6175,67.80691622138671Q4.74891,67.78742362138672,4.88112,67.77440252138672Q5.01332,67.76138132138672,5.14601,67.75486286138671Q5.2787,67.74834442138672,5.41154,67.74834442138672Q5.54439,67.74834442138672,5.67707,67.75486286138671Q5.80976,67.76138132138672,5.94197,67.77440252138672Q6.07417,67.78742362138672,6.20558,67.80691622138671Q6.33699,67.82640872138671,6.46728,67.85232542138672Q6.59758,67.87824242138672,6.72644,67.91052142138672Q6.8553,67.94280042138672,6.98243,67.98136342138672Q7.10956,68.01992642138671,7.23464,68.06468142138672Q7.35972,68.10943542138672,7.48245,68.16027342138672Q7.60518,68.21111142138672,7.72527,68.26791042138672Q7.84537,68.32470942138671,7.96253,68.38733242138672Q8.07969,68.44995542138672,8.19363,68.51825242138672Q8.30758,68.58654842138672,8.41803,68.66035342138672Q8.52849,68.73415842138672,8.63519,68.81329442138671Q8.7419,68.89243442138672,8.84459,68.97670442138671Q8.94728,69.06098442138672,9.04571,69.15019442138671Q9.14414,69.23941442138671,9.23808,69.33334442138671Q9.33202,69.42728442138672,9.42123,69.52571442138672Q9.51044,69.62414442138672,9.59472,69.72684442138672Q9.679,69.82953442138673,9.75813,69.93623442138671Q9.83727,70.04293442138672,9.91107,70.15339442138672Q9.98488,70.26385442138672,10.0532,70.37779442138672Q10.1215,70.49174442138671,10.1841,70.60890442138673Q10.2467,70.72606442138672,10.3035,70.84615442138671Q10.3603,70.96624442138672,10.4112,71.08897442138672Q10.462,71.21171442138672,10.5067,71.33679442138671Q10.5515,71.46187442138672,10.5901,71.58899442138672Q10.6286,71.71612442138672,10.6609,71.84498442138671Q10.6932,71.97385442138672,10.7191,72.10414442138672Q10.745,72.23444442138671,10.7645,72.36584442138673Q10.784,72.49725442138671,10.797,72.62946442138671Q10.81,72.76166442138671,10.8166,72.89435442138672Q10.8231,73.02704442138672,10.8231,73.15988442138672Z" fill="#F1F3F9" fill-opacity="1"/></g><g><path d="M112.18544948120118,30.700104663085938L113.01794948120117,97.72000466308593C113.01794948120117,100.00950466308593,111.14474948120117,101.77860466308594,108.85524948120117,101.77860466308594L43.50046948120117,101.77860466308594C41.21097948120117,101.77860466308594,39.33774948120117,99.90540466308593,39.33774948120117,97.72000466308593L39.33774948120117,11.551564663085937C39.33774948120117,9.262064663085937,41.21097948120117,7.4929046630859375,43.50046948120117,7.4929046630859375L90.85144948120117,7.4929046630859375L112.18544948120118,30.700104663085938Z" fill="#FAFAFA" fill-opacity="1"/><path d="M112.48974948120117,101.32730466308594Q114.01794948120117,99.85170466308594,114.01794948120117,97.72000466308593L114.01794948120117,97.70750466308594L113.18064948120117,30.30500466308594L91.29054948120117,6.4929046630859375L43.50046948120117,6.4929046630859375Q41.36915948120117,6.4929046630859375,39.86595548120117,7.9442696630859375Q38.33774948120117,9.419774663085938,38.33774948120117,11.551564663085937L38.33774948120117,97.72000466308593Q38.33774948120117,99.78640466308593,39.859618481201174,101.28210466308593Q41.38242948120117,102.77860466308594,43.50046948120117,102.77860466308594L108.85524948120117,102.77860466308594Q110.98654948120117,102.77860466308594,112.48974948120117,101.32730466308594ZM112.01794948120117,97.72000466308593L112.01794948120117,97.72580466308594Q112.01584948120117,99.00470466308593,111.10054948120117,99.88850466308594Q110.17864948120118,100.77860466308594,108.85524948120117,100.77860466308594L43.50046948120117,100.77860466308594Q42.200689481201174,100.77860466308594,41.26147948120117,99.85560466308594Q40.33774948120117,98.94780466308593,40.33774948120117,97.72000466308593L40.33774948120117,11.551564663085937Q40.33774948120117,10.268834663085936,41.25514948120117,9.383074663085937Q42.177099481201175,8.492904663085938,43.50046948120117,8.492904663085938L90.41244948120118,8.492904663085938L111.19024948120118,31.095104663085937L112.01794948120117,97.72000466308593Z" fill-rule="evenodd" fill="#D6DCE8" fill-opacity="1"/></g><g><path d="M71.1825969921875,88.35383868408204L68.7890299921875,88.35383868408204C68.2686889921875,88.35383868408204,67.8524169921875,87.83349868408203,67.8524169921875,87.20908868408203C67.8524169921875,86.58467968408203,68.2686889921875,86.06433868408203,68.7890299921875,86.06433868408203L71.1825969921875,86.06433868408203C71.7029369921875,86.06433868408203,72.1192069921875,86.58467968408203,72.1192069921875,87.20908868408203C72.1192069921875,87.93756868408204,71.7029369921875,88.35383868408204,71.1825969921875,88.35383868408204Z" fill="#D6DCE8" fill-opacity="1"/></g><g><path d="M63.89778657836914,88.35383868408204L49.95269957836914,88.35383868408204C49.43235857836914,88.35383868408204,49.01608657836914,87.83349868408203,49.01608657836914,87.20908868408203C49.01608657836914,86.58467968408203,49.43235857836914,86.06433868408203,49.95269957836914,86.06433868408203L63.89778657836914,86.06433868408203C64.41818657836914,86.06433868408203,64.83448657836914,86.58467968408203,64.83448657836914,87.20908868408203C64.83448657836914,87.93756868408204,64.41818657836914,88.35383868408204,63.89778657836914,88.35383868408204Z" fill="#D6DCE8" fill-opacity="1"/></g><g><path d="M81.69348657836915,21.54210041381836L50.36897657836914,21.54210041381836C49.64049557836914,21.54210041381836,49.01608657836914,20.91769041381836,49.01608657836914,20.189220413818358C49.01608657836914,19.46073941381836,49.64049557836914,18.83633041381836,50.36897657836914,18.83633041381836L81.69348657836915,18.83633041381836C82.42198657836914,18.83633041381836,83.04638657836914,19.46073941381836,83.04638657836914,20.189220413818358C83.04638657836914,20.91769041381836,82.42198657836914,21.54210041381836,81.69348657836915,21.54210041381836Z" fill="#D6DCE8" fill-opacity="1"/></g><g><path d="M62.44088657836914,29.035005076904298L50.36897657836914,29.035005076904298C49.64049557836914,29.035005076904298,49.01608657836914,28.410595076904297,49.01608657836914,27.682125076904295C49.01608657836914,26.953644076904297,49.64049557836914,26.329235076904297,50.36897657836914,26.329235076904297L62.33678657836914,26.329235076904297C63.06528657836914,26.329235076904297,63.68968657836914,26.953644076904297,63.68968657836914,27.682125076904295C63.68968657836914,28.410595076904297,63.06528657836914,29.035005076904298,62.44088657836914,29.035005076904298Z" fill="#D6DCE8" fill-opacity="1"/></g><g><path d="M91.38221740722656,7.4929046630859375L91.38221740722656,26.017004663085938C91.38221740722656,28.61870466308594,93.67171740722657,30.700104663085938,96.27341740722656,30.700104663085938L112.71621740722657,30.700104663085938" fill="#D6DCE8" fill-opacity="1"/></g><g><path d="M114.26677421264648,101.9867299987793C115.09937421264648,102.9233299987793,116.14007421264648,103.3396299987793,117.18067421264648,103.3396299987793C118.84577421264649,103.3396299987793,120.51087421264648,102.0908299987793,121.34347421264648,100.4257299987793C121.65567421264649,99.48912999877929,122.07187421264648,97.71992999877929,120.30277421264648,95.9508299987793L102.81927421264649,78.46732999877929L103.23557421264648,77.8429299987793C109.99997421264648,67.9565299987793,110.72847421264649,55.6764299987793,105.21287421264648,45.1655299987793C99.59317421264649,34.5506199987793,89.18637421264648,28.306529998779297,77.32257421264649,28.306529998779297C59.943274212646486,28.306529998779297,45.789974212646484,42.4598299987793,45.789974212646484,59.8391299987793C45.789974212646484,68.5809299987793,49.22422421264648,76.5941299987793,55.46831421264648,82.5260299987793C61.40017421264648,88.1457299987793,69.41347421264649,91.3718299987793,77.42667421264649,91.3718299987793C84.08707421264648,91.3718299987793,90.64337421264648,89.18642999877929,96.26297421264648,85.0236299987793L96.88737421264648,84.6074299987793L114.26677421264648,101.9867299987793ZM54.42767421264649,59.8391299987793C54.42767421264649,47.246929998779294,64.62637421264648,36.9441599987793,77.32267421264649,36.9441599987793C86.16847421264649,36.9441599987793,94.07757421264648,41.939429998779296,98.03217421264648,49.9526299987793C101.88277421264648,57.9659299987793,100.9460742126465,67.2280299987793,95.43047421264649,74.09652999877929C90.95557421264648,79.7161299987793,84.60747421264648,82.8382299987793,77.63487421264648,82.8382299987793C66.18737421264649,82.8382299987793,54.42767421264649,74.2005299987793,54.42767421264649,59.8391299987793Z" fill-rule="evenodd" fill="#F4F5F7" fill-opacity="1"/><path d="M115.01417421264648,101.3224299987793Q115.91847421264649,102.3396299987793,117.18067421264648,102.3396299987793Q118.08827421264648,102.3396299987793,118.99307421264649,101.69332999877929Q119.92407421264649,101.0283299987793,120.44897421264649,99.9785299987793L121.34347421264648,100.4257299987793L120.39477421264648,100.1095299987793Q120.67537421264649,99.2677299987793,120.60857421264649,98.60002999877929Q120.50527421264648,97.5676299987793,119.59567421264649,96.6579299987793L101.53247421264649,78.5947299987793L102.40357421264648,77.28822999877929Q107.32437421264649,70.0961299987793,107.83107421264648,61.6783299987793Q108.33707421264648,53.2712299987793,104.32737421264648,45.6302299987793Q100.25067421264649,37.9298099987793,93.09277421264648,33.6116999987793Q85.95627421264649,29.306529998779297,77.32257421264649,29.306529998779297Q71.12457421264648,29.306529998779297,65.45397421264649,31.710229998779297Q59.976874212646486,34.031899998779295,55.74613421264648,38.262689998779294Q51.515334212646486,42.493529998779294,49.193674212646485,47.9705299987793Q46.78997221264648,53.64112999877929,46.78997221264648,59.8391299987793Q46.789974212646484,66.1840299987793,49.20723421264648,71.8435299987793Q51.61885421264648,77.4897299987793,56.157074212646485,81.8010299987793Q60.466374212646485,85.8835299987793,66.04057421264648,88.1287299987793Q71.60967421264648,90.3718299987793,77.42667421264649,90.3718299987793Q82.27177421264648,90.3718299987793,86.91657421264648,88.8108299987793Q91.59097421264649,87.2399299987793,95.66777421264649,84.2201299987793L95.68767421264648,84.20532999877929L97.01487421264648,83.3206299987793L114.99467421264649,101.3004299987793L115.01417421264648,101.3224299987793ZM113.51937421264648,102.6511299987793L114.26677421264648,101.9867299987793L113.55967421264648,102.6938299987793L96.18027421264648,85.3145299987793L96.88737421264648,84.6074299987793L97.44217421264648,85.4394299987793L96.8176742126465,85.8557299987793L96.26297421264648,85.0236299987793L96.85827421264648,85.8272299987793Q92.52757421264648,89.0350299987793,87.55367421264648,90.7066299987793Q82.59887421264648,92.37182999877929,77.42667421264649,92.37182999877929Q71.22197421264649,92.37182999877929,65.29337421264648,89.9839299987793Q59.36677421264648,87.5967299987793,54.779564212646484,83.2510299987793Q49.94185421264648,78.6552299987793,47.36798421264648,72.62902999877929Q44.789974212646484,66.5932299987793,44.789974212646484,59.8391299987793Q44.789974212646484,53.2347299987793,47.352274212646485,47.190029998779295Q49.825864212646486,41.3545299987793,54.331924212646484,36.8484799987793Q58.837974212646486,32.342429998779295,64.67347421264648,29.868829998779297Q70.71817421264649,27.306529998779297,77.32257421264649,27.306529998779297Q86.51277421264649,27.306529998779297,94.1258742126465,31.899179998779296Q101.75877421264649,36.503829998779295,106.09837421264649,44.7009299987793Q110.36687421264648,52.8352299987793,109.82747421264648,61.798529998779294Q109.28757421264649,70.76862999877929,104.0676742126465,78.3976299987793L103.65137421264649,79.02202999877929L102.81927421264649,78.46732999877929L103.52637421264649,77.7602299987793L121.00987421264648,95.2437299987793Q123.34607421264649,97.57992999877929,122.29207421264648,100.7419299987793L122.26967421264648,100.8094299987793L122.23787421264649,100.8729299987793Q121.49077421264649,102.3670299987793,120.15547421264648,103.3208299987793Q118.72917421264648,104.3396299987793,117.18067421264648,104.3396299987793Q115.02027421264648,104.3396299987793,113.51937421264648,102.6511299987793ZM53.42767421264649,59.8391299987793Q53.42767421264649,54.99472999877929,55.29822421264649,50.560729998779294Q57.10727421264649,46.2724299987793,60.40587421264648,42.96352999877929Q63.710374212646485,39.6486299987793,67.99867421264648,37.8300899987793Q72.44567421264648,35.944169998779294,77.32267421264649,35.944169998779294Q84.23757421264648,35.9441599987793,90.04407421264648,39.5970299987793Q95.83447421264648,43.23962999877929,98.9289742126465,49.5101299987793Q101.95357421264649,55.8044299987793,101.23807421264648,62.559229998779294Q100.5179742126465,69.3583299987793,96.21027421264648,74.7226299987793Q92.71587421264648,79.1108299987793,87.91027421264648,81.4722299987793Q83.09537421264648,83.8382299987793,77.63487421264648,83.8382299987793Q73.12327421264649,83.8382299987793,68.82307421264649,82.19852999877929Q64.45967421264649,80.53482999877929,61.067574212646484,77.4657299987793Q57.492874212646484,74.2315299987793,55.53305421264648,69.9040299987793Q53.42767421264649,65.25502999877929,53.42767421264649,59.8391299987793L53.42767421264649,59.8391299987793ZM55.42767421264649,59.8391299987793Q55.42767421264649,64.8233299987793,57.35497421264648,69.0789299987793Q59.143174212646485,73.0275299987793,62.40937421264648,75.98262999877929Q65.52307421264649,78.7998299987793,69.53557421264648,80.3298299987793Q73.49167421264649,81.8382299987793,77.63487421264648,81.8382299987793Q82.63047421264648,81.8382299987793,87.0282742126465,79.6772299987793Q91.43097421264648,77.5138299987793,94.65077421264648,73.4703299987793Q98.59087421264648,68.5638299987793,99.2491742126465,62.3485299987793Q99.90487421264649,56.15872999877929,97.13547421264649,50.3952299987793Q94.29107421264649,44.6315299987793,88.97917421264648,41.2899299987793Q83.66077421264649,37.9441599987793,77.32267421264649,37.944169998779294Q72.85227421264648,37.944169998779294,68.77947421264648,39.6713299987793Q64.85087421264649,41.3374299987793,61.822274212646484,44.3755299987793Q58.79867421264648,47.4086299987793,57.14097421264648,51.338129998779294Q55.42767421264649,55.399329998779294,55.42767421264649,59.8391299987793L55.42767421264649,59.8391299987793Z" fill="#D6DCE8" fill-opacity="1"/></g><g><path d="M67.43615470947266,63.58562491943359C68.78903470947266,63.58562491943359,69.93378470947266,62.4408749194336,69.93378470947266,61.08799491943359C69.93378470947266,59.735104919433596,68.78903470947266,58.590354919433594,67.43615470947266,58.590354919433594C66.08326470947266,58.590354919433594,64.93851470947266,59.735104919433596,64.93851470947266,61.08799491943359C64.93851470947266,62.4408749194336,66.08326470947266,63.58562491943359,67.43615470947266,63.58562491943359Z" fill="#AAB2C5" fill-opacity="1"/></g><g><path d="M86.58469139160157,63.58562491943359C87.93757139160157,63.58562491943359,89.08232139160157,62.4408749194336,89.08232139160157,61.08799491943359C89.08232139160157,59.735104919433596,87.93757139160157,58.590354919433594,86.58469139160157,58.590354919433594C85.23180139160156,58.590354919433594,84.08705139160156,59.735104919433596,84.08705139160156,61.08799491943359C84.08705139160156,62.5449449194336,85.23180139160156,63.58562491943359,86.58469139160157,63.58562491943359Z" fill="#AAB2C5" fill-opacity="1"/></g><g><path d="M67.33936253051758,52.82497787475586L61.84456253051758,55.79091787475586L62.58656853051758,57.16461787475586L68.08032253051758,54.19867787475586L67.33936253051758,52.82497787475586Z" fill="#AAB2C5" fill-opacity="1"/></g><g><path d="M86.24542056640625,52.78543472290039L85.50445556640625,54.15913472290039L90.99925556640625,57.12507472290039L91.74021556640625,55.751374722900394L86.24542056640625,52.78543472290039Z" fill="#AAB2C5" fill-opacity="1"/></g><g><path d="M79.92432421142578,67.2280096508789Q79.92432421142578,67.3353696508789,79.91028421142578,67.44221965087891Q79.89625421142578,67.5490696508789,79.86832421142579,67.6543696508789Q79.84040421142578,67.7596696508789,79.79884421142579,67.8624096508789Q79.75729421142579,67.9651496508789,79.70251421142578,68.0643396508789Q79.64772421142578,68.1635296508789,79.58024421142578,68.25820965087891Q79.51276421142578,68.35289965087891,79.43323421142578,68.44216965087891Q79.35370421142578,68.53143965087891,79.26289421142579,68.6144296508789Q79.17207421142578,68.6974296508789,79.07085421142578,68.77333965087891Q78.96963421142578,68.8492596508789,78.85897421142579,68.91736965087891Q78.74831421142578,68.9854796508789,78.62929421142579,69.0451296508789Q78.51026421142578,69.10477965087891,78.38401421142578,69.1553896508789Q78.25777421142578,69.20599965087891,78.12551421142578,69.2470796508789Q77.99326421142578,69.2881696508789,77.85627421142578,69.3193396508789Q77.71928421142579,69.3504996508789,77.57888421142579,69.3714496508789Q77.43848421142579,69.39238965087891,77.29602421142579,69.4029196508789Q77.15356421142579,69.4134396508789,77.01041421142578,69.4134396508789Q76.86726421142578,69.4134396508789,76.72479421142577,69.4029196508789Q76.58233421142577,69.39238965087891,76.44193421142577,69.3714496508789Q76.30153421142577,69.3504996508789,76.16454421142578,69.3193396508789Q76.02756421142578,69.2881696508789,75.89530421142578,69.2470796508789Q75.76305421142578,69.20599965087891,75.63680421142578,69.1553896508789Q75.51055421142578,69.10477965087891,75.39153421142578,69.0451296508789Q75.27250421142578,68.9854796508789,75.16184421142579,68.91736965087891Q75.05119121142579,68.8492596508789,74.94996821142578,68.77333965087891Q74.84874521142578,68.6974296508789,74.75793121142578,68.6144296508789Q74.66711621142578,68.53143965087891,74.58758621142579,68.44216965087891Q74.50805521142578,68.35289965087891,74.44057421142578,68.25820965087891Q74.37309421142578,68.1635296508789,74.31831221142578,68.0643396508789Q74.26353021142579,67.9651496508789,74.22197621142578,67.8624096508789Q74.18042151142578,67.7596696508789,74.15249411142578,67.6543696508789Q74.12456671142579,67.5490696508789,74.11053551142578,67.44221965087891Q74.09650421142578,67.3353696508789,74.09650421142578,67.2280096508789Q74.09650421142578,67.1206496508789,74.11053551142578,67.01379965087891Q74.12456671142579,66.9069496508789,74.15249411142578,66.8016496508789Q74.18042151142578,66.6963496508789,74.22197621142578,66.5936096508789Q74.26353021142579,66.4908696508789,74.31831221142578,66.3916796508789Q74.37309421142578,66.2924896508789,74.44057421142578,66.19780965087891Q74.50805521142578,66.10311965087891,74.58758621142579,66.01384965087891Q74.66711621142578,65.92458065087891,74.75793121142578,65.8415876508789Q74.84874521142578,65.7585946508789,74.94996821142578,65.6826776508789Q75.05119121142579,65.6067596508789,75.16184421142579,65.53864965087891Q75.27250421142578,65.47053865087891,75.39153421142578,65.41089065087891Q75.51055421142578,65.3512436508789,75.63680421142578,65.30063265087891Q75.76305421142578,65.2500216508789,75.89530421142578,65.2089356508789Q76.02756421142578,65.1678496508789,76.16454421142578,65.1366835508789Q76.30153421142577,65.10551765087891,76.44193421142577,65.0845720508789Q76.58233421142577,65.06362655087891,76.72479421142577,65.0531030508789Q76.86726421142578,65.0425796508789,77.01041421142578,65.0425796508789Q77.15356421142579,65.0425796508789,77.29602421142579,65.0531030508789Q77.43848421142579,65.06362655087891,77.57888421142579,65.0845720508789Q77.71928421142579,65.10551765087891,77.85627421142578,65.1366835508789Q77.99326421142578,65.1678496508789,78.12551421142578,65.2089356508789Q78.25777421142578,65.2500216508789,78.38401421142578,65.30063265087891Q78.51026421142578,65.3512436508789,78.62929421142579,65.41089065087891Q78.74831421142578,65.47053865087891,78.85897421142579,65.53864965087891Q78.96963421142578,65.6067596508789,79.07085421142578,65.6826776508789Q79.17207421142578,65.7585946508789,79.26289421142579,65.8415876508789Q79.35370421142578,65.92458065087891,79.43323421142578,66.01384965087891Q79.51276421142578,66.10311965087891,79.58024421142578,66.19780965087891Q79.64772421142578,66.2924896508789,79.70251421142578,66.3916796508789Q79.75729421142579,66.4908696508789,79.79884421142579,66.5936096508789Q79.84040421142578,66.6963496508789,79.86832421142579,66.8016496508789Q79.89625421142578,66.9069496508789,79.91028421142578,67.01379965087891Q79.92432421142578,67.1206496508789,79.92432421142578,67.2280096508789Z" fill="#AAB2C5" fill-opacity="1"/></g></g></svg>