<svg xmlns="http://www.w3.org/2000/svg" xmlns:xlink="http://www.w3.org/1999/xlink" fill="none" version="1.1" width="120" height="113.7313461303711" viewBox="0 0 120 113.7313461303711"><defs><clipPath id="master_svg0_1475_36026"><rect x="0" y="0" width="120" height="113.7313461303711" rx="0"/></clipPath></defs><g clip-path="url(#master_svg0_1475_36026)"><g><g><g><path d="M116.88353131103494,59.94626590009937C116.88353131103494,30.75226590009937,93.06273131103494,7.110465900099371,63.68953131103494,7.110465900099371C34.31643131103494,7.110465900099371,10.495531311034938,30.75226590009937,10.495531311034938,59.94626590009937C10.495531311034938,89.14036590009937,34.31643131103494,112.78246590009937,63.68953131103494,112.78246590009937C93.06273131103494,112.78246590009937,116.88353131103494,89.14036590009937,116.88353131103494,59.94626590009937C116.88353131103494,59.94626590009937,116.88353131103494,59.94626590009937,116.88353131103494,59.94626590009937Z" fill-rule="evenodd" fill="#F4F5F7" fill-opacity="1"/><path d="M42.599031311034935,109.55446590009937Q52.66703131103494,113.78246590009937,63.68953131103494,113.78246590009937Q74.71213131103494,113.78246590009937,84.78013131103494,109.55446590009937Q94.50593131103494,105.46966590009937,102.00613131103493,98.02176590009937Q109.50813131103494,90.57196590009937,113.62253131103493,80.90996590009937Q117.88353131103494,70.90426590009938,117.88353131103494,59.94626590009937Q117.88353131103494,48.98816590009937,113.62253131103493,38.98266590009937Q109.50793131103494,29.32056590009937,102.00613131103493,21.87106590009937Q94.50583131103494,14.42310590009937,84.78013131103494,10.33865590009937Q74.71213131103494,6.110465900099371,63.68953131103494,6.110465900099371Q52.666931311034936,6.110465900099371,42.599031311034935,10.33865590009937Q32.87323131103494,14.423145900099371,25.373031311034936,21.87106590009937Q17.871021311034937,29.32066590009937,13.756451311034938,38.98266590009937Q9.495533311034938,48.98826590009937,9.495531311034938,59.94626590009937Q9.495531311034938,70.90426590009938,13.756451311034938,80.90996590009937Q17.871041311034936,90.57206590009937,25.373031311034936,98.02176590009937Q32.87333131103494,105.46976590009938,42.599031311034935,109.55446590009937ZM84.00573131103494,107.71046590009936Q74.30923131103494,111.78246590009937,63.68953131103494,111.78246590009937Q53.069931311034935,111.78246590009937,43.373431311034935,107.71046590009936Q34.00643131103494,103.77646590009937,26.782231311034938,96.60256590009936Q19.557871311034937,89.42856590009937,15.596551311034938,80.12636590009937Q11.495531311034938,70.49616590009937,11.495531311034938,59.94626590009937Q11.495531311034938,49.39636590009937,15.596551311034938,39.76626590009937Q19.557861311034937,30.46416590009937,26.782231311034938,23.29016590009937Q34.00633131103494,16.11648590009937,43.373431311034935,12.18264590009937Q53.06983131103494,8.11046590009937,63.68953131103494,8.11046590009937Q74.30923131103494,8.11046590009937,84.00573131103494,12.18264590009937Q93.37273131103494,16.11643590009937,100.59683131103493,23.29016590009937Q107.82113131103493,30.46406590009937,111.78253131103494,39.76626590009937Q115.88353131103494,49.39626590009937,115.88353131103494,59.94626590009937Q115.88353131103494,70.49616590009937,111.78253131103494,80.12636590009937Q107.82123131103494,89.42856590009937,100.59683131103493,96.60256590009936Q93.37273131103494,103.77636590009936,84.00573131103494,107.71046590009936Z" fill-rule="evenodd" fill="#D6DCE8" fill-opacity="1"/></g><g><g><path d="M23.211949851672145,52.334304853501735C23.122397651672145,52.51340485350174,23.122397651672145,52.69250485350173,23.122397651672145,52.87170485350173C23.122397651672145,52.961204853501734,23.122397651672145,52.961204853501734,23.122397651672145,53.05080485350174C23.122397651672145,53.05080485350174,23.122397651672145,85.28960485350174,23.122397651672145,85.28960485350174C23.122397651672145,85.37910485350173,23.122397651672145,85.37910485350173,23.122397651672145,85.46870485350175C23.211949851672145,92.18510485350174,28.674637651672146,97.55820485350173,35.39109765167215,97.55820485350173C35.39109765167215,97.55820485350173,92.16719765167214,97.55820485350173,92.16719765167214,97.55820485350173C98.97309765167215,97.55820485350173,104.43579765167215,92.09550485350172,104.43579765167215,85.37910485350173C104.43579765167215,85.37910485350173,104.43579765167215,53.05080485350174,104.43579765167215,53.05080485350174C104.43579765167215,52.782104853501735,104.43579765167215,52.51340485350174,104.25669765167214,52.334304853501735C104.16719765167214,52.065704853501735,104.07759765167215,51.79700485350173,103.98809765167215,51.617904853501734C103.98809765167215,51.617904853501734,88.76419765167215,22.513444853501735,88.76419765167215,22.513444853501735C88.13729765167214,21.349270853501736,87.06269765167215,20.722404853501736,85.80899765167214,20.722404853501736C85.80899765167214,20.722404853501736,41.65969765167215,20.722404853501736,41.65969765167215,20.722404853501736C40.405997651672145,20.722404853501736,39.241797651672144,21.349270853501736,38.70449765167214,22.513444853501735C38.70449765167214,22.513444853501735,23.480606651672144,51.617904853501734,23.480606651672144,51.617904853501734C23.391054651672146,51.88660485350174,23.301501651672144,52.065704853501735,23.211949851672145,52.334304853501735C23.211949851672145,52.334304853501735,23.211949851672145,52.334304853501735,23.211949851672145,52.334304853501735Z" fill-rule="evenodd" fill="#F4F5F7" fill-opacity="1"/><path d="M22.557294651672144,51.22550485350173L22.531907651672146,51.30170485350173Q22.496408651672144,51.408204853501736,22.417730651672144,51.604904853501736Q22.333031651672144,51.81670485350173,22.281328651672144,51.965104853501735Q22.122397651672145,52.33530485350174,22.122397651672145,52.87170485350173L22.122397651672145,85.46870485350175Q22.158163651672144,88.15780485350174,23.215590451672146,90.58990485350174Q24.237217651672147,92.93960485350175,26.069967651672144,94.74460485350173Q27.901987651672144,96.54880485350174,30.267957651672145,97.53650485350173Q32.715317651672144,98.55820485350173,35.39109765167215,98.55820485350173L92.16719765167214,98.55820485350173Q94.87479765167214,98.55820485350173,97.34259765167215,97.52170485350175Q99.72479765167215,96.52120485350173,101.55899765167214,94.69620485350174Q103.39159765167214,92.87290485350172,104.39639765167215,90.50640485350175Q105.43579765167215,88.05830485350174,105.43579765167215,85.37910485350173L105.43579765167215,53.05080485350174Q105.43579765167215,52.316104853501734,105.15439765167214,51.867304853501736Q104.98829765167214,51.382304853501736,104.88259765167214,51.17090485350174L89.65029765167215,22.049944853501735Q89.04769765167214,20.930835853501737,88.03609765167215,20.323868853501736Q87.03369765167214,19.722404853501736,85.80899765167214,19.722404853501736L41.65969765167215,19.722404853501736Q40.42359765167215,19.722404853501736,39.40719765167215,20.318943853501736Q38.33339765167214,20.949255853501736,37.80769765167214,22.070474853501736L22.557294651672144,51.22550485350173ZM24.401377651672146,52.01510485350174Q24.351627651672146,52.15530485350173,24.274677651672146,52.34770485350174Q24.196077651672145,52.54420485350174,24.160617651672144,52.65060485350173L24.138147651672146,52.71800485350174L24.124407651672144,52.745504853501735Q24.122397651672145,52.78280485350174,24.122397651672145,52.87170485350173L24.122397651672145,85.46870485350175Q24.152627651672145,87.72910485350172,25.049727651672146,89.79240485350172Q25.916787651672145,91.78670485350173,27.473347651672146,93.31960485350174Q29.029627651672143,94.85230485350175,31.038437651672144,95.69090485350173Q33.11600765167215,96.55820485350173,35.39109765167215,96.55820485350173L92.16719765167214,96.55820485350173Q94.47179765167215,96.55820485350173,96.56819765167215,95.67770485350172Q98.59069765167214,94.82830485350175,100.14839765167214,93.27840485350174Q101.70359765167214,91.73110485350173,102.55539765167215,89.72470485350175Q103.43579765167215,87.65130485350173,103.43579765167215,85.37910485350173L103.43579765167215,53.05080485350174Q103.43579765167215,52.97610485350174,103.43469765167214,52.92650485350173L103.38259765167214,52.87440485350174L103.30799765167214,52.65040485350174Q103.15149765167214,52.18090485350174,103.09359765167214,52.06490485350174L87.87809765167215,22.976944853501735Q87.20249765167215,21.722404853501736,85.80899765167214,21.722404853501736L41.65969765167215,21.722404853501736Q40.170997651672145,21.722404853501736,39.61249765167214,22.932494853501737L39.602097651672146,22.954994853501738L24.401377651672146,52.01510485350174Z" fill-rule="evenodd" fill="#D6DCE8" fill-opacity="1"/></g><g><path d="M86.51016112823464,10.869747279649198L86.32926112823465,8.9173890796492L84.33776112823465,9.101925479649198L84.51866112823464,11.054277279649199L86.51016112823464,10.869747279649198ZM87.19706112823465,18.6051872796492Q87.08276112823464,17.064347279649198,86.86996112823465,14.732417279649198L84.87826112823464,14.914197279649198Q85.08956112823465,17.229147279649197,85.20256112823465,18.7531372796492L87.19706112823465,18.6051872796492ZM87.38506112823464,26.449757279649198Q87.47026112823465,24.5829572796492,87.41056112823465,22.5288572796492L85.41136112823465,22.5870572796492Q85.46896112823464,24.566357279649196,85.38716112823465,26.358557279649197L87.38506112823464,26.449757279649198ZM86.43646112823464,34.2663572796492Q86.81816112823465,32.1901572796492,87.04426112823464,30.3877572796492L85.05976112823464,30.1388572796492Q84.84086112823465,31.884657279649197,84.46946112823464,33.904757279649196L86.43646112823464,34.2663572796492ZM61.379191128234645,33.0066572796492Q61.15696112823464,33.165857279649195,60.94633112823465,33.3421572796492L62.229811128234644,34.8759572796492Q62.37114112823465,34.7577572796492,62.51944112823465,34.6501572796492Q63.718841128234644,33.905157279649195,65.24254112823465,33.8181572796492L65.12857112823464,31.821457279649202Q63.074121128234644,31.938757279649195,61.429181128234646,32.9731572796492L61.403681128234645,32.9891572796492L61.379191128234645,33.0066572796492ZM71.13316112823465,33.888457279649195Q70.36676112823464,33.179157279649196,69.39556112823465,32.6921572796492L68.49910112823464,34.4799572796492Q69.22656112823465,34.8447572796492,69.79026112823465,35.3707572796492L69.81156112823464,35.3906572796492L69.83406112823465,35.4092572796492Q70.52276112823465,35.9806572796492,71.06096112823465,36.700957279649195L72.66316112823465,35.503857279649196Q71.99136112823464,34.6047572796492,71.13316112823465,33.888457279649195ZM58.507675128234645,36.965957279649196Q57.78558112823465,39.0654572796492,58.082918128234645,41.254457279649195L60.064721128234645,40.9852572796492Q59.83129912823465,39.2668572796492,60.39894112823465,37.6163572796492L58.507675128234645,36.965957279649196ZM85.30106112823465,39.688557279649196L85.65766112823465,38.0992572796492L83.70626112823464,37.6613572796492L83.37196112823464,39.1508572796492Q83.31546112823465,39.319757279649195,83.21556112823464,39.6197572796492Q82.84436112823465,40.7344572796492,82.64886112823464,41.289957279649194L84.53536112823464,41.954157279649195Q84.73656112823464,41.382657279649194,85.11316112823465,40.2516572796492Q85.22756112823464,39.907957279649196,85.28476112823465,39.737157279649196L85.30106112823465,39.688557279649196ZM74.76546112823465,42.8752572796492Q74.84836112823464,41.061157279649194,74.44326112823464,39.368557279649195L72.49816112823464,39.8340572796492Q72.83756112823464,41.2519572796492,72.76756112823465,42.7840572796492Q72.75436112823465,43.072957279649195,72.72836112823464,43.365557279649195L74.72056112823465,43.5426572796492Q74.75036112823464,43.2070572796492,74.76546112823465,42.8752572796492ZM59.244893128234644,45.2560572796492Q60.13569112823465,47.167757279649194,61.580771128234645,48.7181572796492L63.04383112823464,47.3545572796492Q61.81473112823465,46.0358572796492,61.05773112823464,44.411357279649195L59.244893128234644,45.2560572796492ZM81.10196112823465,48.275657279649195Q82.12156112823465,47.190057279649196,82.94826112823465,45.6687572796492L81.19106112823465,44.713757279649194Q80.48076112823465,46.0206572796492,79.62856112823465,46.9230572796492L79.60906112823464,46.9435572796492L79.59086112823465,46.965257279649194Q79.33146112823465,47.273057279649194,79.04036112823465,47.562257279649195L80.44986112823464,48.9810572796492Q80.79356112823464,48.6396572796492,81.10196112823465,48.275657279649195ZM72.26016112823464,51.2749572796492Q73.25976112823464,49.426357279649196,73.87446112823464,47.5535572796492L71.97416112823464,46.9298572796492Q71.41526112823465,48.6325572796492,70.50086112823465,50.3236572796492L72.26016112823464,51.2749572796492ZM67.75335112823464,52.408357279649195Q68.29579112823464,52.5473572796492,68.86104112823465,52.6361572796492L69.17136112823465,50.6603572796492Q68.70008112823464,50.5863572796492,68.24967112823464,50.4709572796492Q66.99753112823464,50.160257279649194,65.83988112823465,49.530557279649194L64.88429112823465,51.2875572796492Q66.26712112823465,52.0396572796492,67.75335112823464,52.408357279649195ZM73.03916112823464,52.6186572796492Q75.12916112823464,52.289757279649194,77.01106112823464,51.3844572796492L76.14396112823465,49.582157279649195Q74.52746112823465,50.3598572796492,72.72826112823465,50.642957279649195L73.03916112823464,52.6186572796492ZM68.03127112823465,57.929957279649194Q69.34596112823465,56.2194572796492,70.29816112823464,54.6991572796492L68.60322112823465,53.6374572796492Q67.70183112823464,55.0766572796492,66.44554112823465,56.7111572796492L68.03127112823465,57.929957279649194ZM63.338991128234646,64.0751572796492Q64.46204112823465,62.518557279649194,65.64307112823465,60.987757279649195L64.05957112823465,59.766057279649196Q62.85886112823464,61.3223572796492,61.71707112823464,62.904957279649196L63.338991128234646,64.0751572796492ZM60.04470112823464,68.8386572796492L61.136581128234646,67.2188572796492L59.47819912823464,66.1009572796492L58.386320128234644,67.7206572796492L60.04470112823464,68.8386572796492Z" fill-rule="evenodd" fill="#AAB2C5" fill-opacity="1"/></g><g><path d="M89.96418747344948,0.33136078250221C87.78806747344949,0.48359918250221,85.9164244734495,0.64479318250221,85.45075257344949,2.19404318250221C85.1373194734495,3.7343431825022098,86.54328747344948,4.51345318250221,88.56716747344949,5.44479318250221C90.43880747344949,6.52837318250221,92.30149747344949,5.91046318250221,92.77612747344949,4.20001318250221C93.08060747344949,2.49852318250221,92.61492747344948,0.01792818250221001,89.96418747344948,0.33136078250221C89.96418747344948,0.33136078250221,89.96418747344948,0.33136078250221,89.96418747344948,0.33136078250221Z" fill-rule="evenodd" fill="#D6DCE8" fill-opacity="1"/></g><g><path d="M82.18209750274636,6.689568565011442C83.89254750274637,5.140318565011441,85.28956750274637,4.047778565011441,84.51045750274636,2.4985255650114415C83.73135750274636,1.1015105650114414,82.48657750274637,1.5671816650114414,79.84478750274636,1.8806145650114414C77.65971150274636,2.3462865650114413,76.72836850274636,4.208968565011442,77.65971250274636,5.758228565011441C78.43881750274636,7.155238565011442,80.62388750274637,8.086588565011441,82.18209750274636,6.689568565011442C82.18209750274636,6.689568565011442,82.18209750274636,6.689568565011442,82.18209750274636,6.689568565011442Z" fill-rule="evenodd" fill="#D6DCE8" fill-opacity="1"/></g><g><path d="M82.6388161087034,2.0418104898276885C82.6388161087034,2.4985204898276883,82.6388161087034,2.8119604898276886,82.6388161087034,3.4298704898276884C82.79105510870339,5.444790489827689,84.1970261087034,6.994050489827688,85.59403610870339,6.689570489827688C86.8388161087034,6.528380489827688,87.6179161087034,4.674640489827689,87.3044861087034,2.4985204898276883C87.3044861087034,2.1940504898276885,87.1522461087034,1.7283804898276884,87.00000610870339,1.4149404898276885C86.68657610870339,0.49255448982768857,85.59403610870339,-0.13431151017231144,84.5104561087034,0.026883089827688552C83.4179201087034,0.17912148982768858,82.79105510870339,0.9492714898276886,82.6388161087034,2.0418104898276885C82.6388161087034,2.0418104898276885,82.6388161087034,2.0418104898276885,82.6388161087034,2.0418104898276885Z" fill-rule="evenodd" fill="#AAB2C5" fill-opacity="1"/></g></g><g><g><path d="M23.122397651672145,52.871662052107425C23.122397651672145,52.871662052107425,23.122397651672145,88.69254905210742,23.122397651672145,88.69254905210742C23.122397651672145,93.61794905210743,27.152247651672145,97.55824905210743,32.07761765167214,97.55824905210743C32.07761765167214,97.55824905210743,95.48059765167214,97.55824905210743,95.48059765167214,97.55824905210743C100.49549765167214,97.55824905210743,104.43579765167215,93.61794905210743,104.43579765167215,88.69254905210742C104.43579765167215,88.69254905210742,104.43579765167215,53.050767052107425,104.43579765167215,53.050767052107425C104.43579765167215,52.78211005210743,104.43579765167215,52.51345305210743,104.25669765167214,52.33434905210743C104.25669765167214,52.33434905210743,83.92839765167214,52.33434905210743,83.92839765167214,52.33434905210743C82.40599765167215,52.33434905210743,81.15229765167214,52.871662052107425,80.07759765167214,53.946289052107424C79.09249765167215,54.931359052107425,78.46569765167214,56.36419905210742,78.46569765167214,57.886589052107425C78.46569765167214,61.02091905210743,75.95819765167215,63.43884905210743,72.91339765167214,63.43884905210743C72.91339765167214,63.43884905210743,54.734297651672144,63.43884905210743,54.734297651672144,63.43884905210743C53.122397651672145,63.43884905210743,51.86869765167215,62.90154905210743,50.79399765167214,61.826889052107425C49.80899765167214,60.84180905210743,49.182097651672144,59.408979052107426,49.182097651672144,57.886589052107425C49.182097651672144,54.752259052107426,46.674597651672144,52.33434905210743,43.629897651672145,52.33434905210743C43.629897651672145,52.33434905210743,23.211949851672145,52.33434905210743,23.211949851672145,52.33434905210743C23.122397651672145,52.51345305210743,23.122397651672145,52.69255805210743,23.122397651672145,52.871662052107425C23.122397651672145,52.871662052107425,23.122397651672145,52.871662052107425,23.122397651672145,52.871662052107425Z" fill-rule="evenodd" fill="#FAFAFA" fill-opacity="1"/><path d="M22.593916651672146,51.33434905210743L22.317522651672146,51.887135052107425Q22.122397651672145,52.27738465210743,22.122397651672145,52.871662052107425L22.122397651672145,88.69254905210742Q22.122397651672145,90.71054905210742,22.909749651672144,92.54934905210743Q23.668390651672144,94.32104905210743,25.050817651672144,95.68444905210742Q26.428977651672145,97.04354905210744,28.215597651672145,97.78854905210743Q30.061337651672144,98.55824905210743,32.07761765167214,98.55824905210743L95.48059765167214,98.55824905210743Q97.52739765167215,98.55824905210743,99.37909765167214,97.78914905210743Q101.17109765167214,97.04474905210742,102.54339765167215,95.68194905210743Q103.91419765167214,94.32064905210743,104.66319765167215,92.54424905210743Q105.43579765167215,90.71174905210742,105.43579765167215,88.69254905210742L105.43579765167215,53.050767052107425Q105.43579765167215,52.09924505210743,104.96379765167214,51.62725005210743L104.67089765167215,51.33434905210743L83.92839765167214,51.33434905210743Q81.27539765167214,51.33434905210743,79.37049765167214,53.23915805210743Q78.47899765167215,54.130639052107426,77.97919765167214,55.33034905210743Q77.46569765167214,56.562699052107426,77.46569765167214,57.886589052107425Q77.46569765167214,59.80441905210743,76.12819765167214,61.127049052107424Q74.80169765167214,62.43884905210743,72.91339765167214,62.43884905210743L54.734297651672144,62.43884905210743Q52.820197651672146,62.43884905210743,51.50109765167214,61.11976905210743Q50.182097651672144,59.80066905210742,50.182097651672144,57.886589052107425Q50.182097651672144,55.13377905210743,48.25089765167215,53.224049052107425Q46.33999765167215,51.33434905210743,43.629897651672145,51.33434905210743L22.593916651672146,51.33434905210743ZM24.122397651672145,53.33434905210743L24.122397651672145,88.69254905210742Q24.122397651672145,91.95984905210743,26.455177651672145,94.26044905210742Q28.785127651672145,96.55824905210743,32.07761765167214,96.55824905210743L95.48059765167214,96.55824905210743Q98.82269765167214,96.55824905210743,101.13409765167215,94.26284905210743Q103.43579765167215,91.97714905210742,103.43579765167215,88.69254905210742L103.43579765167215,53.33434905210743L83.92839765167214,53.33434905210743Q82.10379765167215,53.33434905210743,80.78469765167215,54.653419052107424Q79.46569765167214,55.97235905210743,79.46569765167214,57.886589052107425Q79.46569765167214,60.639409052107425,77.53449765167215,62.549149052107424Q75.62349765167215,64.43884905210743,72.91339765167214,64.43884905210743L54.734297651672144,64.43884905210743Q51.991797651672144,64.43884905210743,50.086897651672146,62.53404905210743Q49.195397651672145,61.642479052107426,48.695597651672145,60.44284905210743Q48.182097651672144,59.21044905210743,48.182097651672144,57.886589052107425Q48.182097651672144,55.968769052107426,46.844597651672146,54.64613905210743Q45.51809765167215,53.33434905210743,43.629897651672145,53.33434905210743L24.122397651672145,53.33434905210743Z" fill-rule="evenodd" fill="#D6DCE8" fill-opacity="1"/></g></g></g><g><g><path d="M53.56120131225564,71.29255886457395C52.42388931225564,71.29255886457395,51.50150131225564,72.21494686457395,51.50150131225564,73.35225886457395C51.50150131225564,74.48061886457396,52.42388931225564,75.40300886457395,53.56120131225564,75.40300886457395C54.68956131225564,75.40300886457395,55.61195131225564,74.48061886457396,55.61195131225564,73.35225886457395C55.61195131225564,72.21494686457395,54.68956131225564,71.29255886457395,53.56120131225564,71.29255886457395C53.56120131225564,71.29255886457395,53.56120131225564,71.29255886457395,53.56120131225564,71.29255886457395Z" fill-rule="evenodd" fill="#AAB2C5" fill-opacity="1"/></g><g><path d="M73.99702093811014,71.29255519139406C72.85970893811013,71.29255519139406,71.93732093811013,72.21494319139406,71.93732093811013,73.35225519139406C71.93732093811013,74.48061519139407,72.85970893811013,75.40300519139406,73.99702093811014,75.40300519139406C75.12538093811014,75.40300519139406,76.04777093811013,74.48061519139407,76.04777093811013,73.35225519139406C76.04777093811013,72.21494319139406,75.12538093811014,71.29255519139406,73.99702093811014,71.29255519139406C73.99702093811014,71.29255519139406,73.99702093811014,71.29255519139406,73.99702093811014,71.29255519139406Z" fill-rule="evenodd" fill="#AAB2C5" fill-opacity="1"/></g><g><path d="M68.89252757949808,87.06270408277463C68.89252757949808,86.05972008277463,68.05970757949807,85.22688408277463,67.05672757949807,85.22688408277463C67.05672757949807,85.22688408277463,60.67164757949807,85.22688408277463,60.67164757949807,85.22688408277463C59.66866357949807,85.22688408277463,58.83582757949807,86.05972008277463,58.83582757949807,87.06270408277463C58.83582757949807,88.05673408277462,59.66866357949807,88.88957408277463,60.67164757949807,88.88957408277463C60.67164757949807,88.88957408277463,67.11045757949807,88.88957408277463,67.11045757949807,88.88957408277463C68.11343757949807,88.88957408277463,68.94622757949807,88.05673408277462,68.89252757949808,87.06270408277463C68.89252757949808,87.06270408277463,68.89252757949808,87.06270408277463,68.89252757949808,87.06270408277463Z" fill-rule="evenodd" fill="#AAB2C5" fill-opacity="1"/></g></g><g><path d="M115.52239592040993,27.349271968821995C113.49851592040994,27.349271968821995,111.85075592040994,28.997031968821993,111.85075592040994,31.020911968821995C111.85075592040994,33.044791968822,113.49851592040994,34.692551968821995,115.52239592040993,34.692551968821995C117.54627592040994,34.692551968821995,119.19403592040993,33.044791968822,119.19403592040993,31.020911968821995C119.19403592040993,28.997031968821993,117.54627592040994,27.349271968821995,115.52239592040993,27.349271968821995C115.52239592040993,27.349271968821995,115.52239592040993,27.349271968821995,115.52239592040993,27.349271968821995Z" fill-rule="evenodd" fill="#F1F3F9" fill-opacity="1"/></g><g><path d="M111.85075437255837,17.767181591014378C110.46269437255837,17.767181591014378,109.34329437255838,18.886581591014377,109.34329437255838,20.27464159101438C109.34329437255838,21.66270159101438,110.46269437255837,22.782111591014377,111.85075437255837,22.782111591014377C113.23881437255838,22.782111591014377,114.35822437255837,21.66270159101438,114.35822437255837,20.27464159101438C114.35822437255837,18.886581591014377,113.23881437255838,17.767181591014378,111.85075437255837,17.767181591014378C111.85075437255837,17.767181591014378,111.85075437255837,17.767181591014378,111.85075437255837,17.767181591014378Z" fill-rule="evenodd" fill="#F1F3F9" fill-opacity="1"/></g><g><path d="M10.298513524017116,26.005989269237034C8.910453524017116,26.005989269237034,7.791053524017116,27.125389269237033,7.791053524017116,28.513449269237036C7.791053524017116,29.901509269237035,8.910453524017116,31.020919269237034,10.298513524017116,31.020919269237034C11.686573524017115,31.020919269237034,12.805983524017115,29.901509269237035,12.805983524017115,28.513449269237036C12.805983524017115,27.125389269237033,11.686573524017115,26.005989269237034,10.298513524017116,26.005989269237034C10.298513524017116,26.005989269237034,10.298513524017116,26.005989269237034,10.298513524017116,26.005989269237034Z" fill-rule="evenodd" fill="#F1F3F9" fill-opacity="1"/></g><g><path d="M4.656728745335663,76.87165279767942C2.086578745335663,76.87165279767942,0.00000874533566275204,78.95822279767941,0.00000874533566275204,81.52837279767942C0.00000874533566275204,84.09852279767942,2.086578745335663,86.18508279767941,4.656728745335663,86.18508279767941C7.226878745335663,86.18508279767941,9.313438745335663,84.09852279767942,9.313438745335663,81.52837279767942C9.313438745335663,78.95822279767941,7.226878745335663,76.87165279767942,4.656728745335663,76.87165279767942C4.656728745335663,76.87165279767942,4.656728745335663,76.87165279767942,4.656728745335663,76.87165279767942Z" fill-rule="evenodd" fill="#F1F3F9" fill-opacity="1"/></g></g></g></svg>