<svg xmlns="http://www.w3.org/2000/svg" xmlns:xlink="http://www.w3.org/1999/xlink" fill="none" version="1.1" width="18" height="18" viewBox="0 0 18 18"><defs><clipPath id="master_svg0_839_36963"><rect x="0" y="0" width="18" height="18" rx="0"/></clipPath></defs><g clip-path="url(#master_svg0_839_36963)"><g><path d="M0.875,9Q0.875,7.45021,1.4454701,6.00923Q2.064879,4.44464,3.25476,3.25476Q4.44463,2.06488,6.00923,1.4454706Q7.45021,0.875,9,0.875Q10.54979,0.875,11.9908,1.4454701Q13.5554,2.064878,14.7452,3.25476Q15.9351,4.44463,16.5545,6.00923Q17.125,7.45021,17.125,9Q17.125,10.54979,16.5545,11.9908Q15.9351,13.5554,14.7452,14.7452Q13.5554,15.9351,11.9908,16.5545Q10.54979,17.125,9,17.125Q7.45021,17.125,6.00923,16.5545Q4.44463,15.9351,3.25476,14.7452Q2.064878,13.5554,1.4454706,11.9908Q0.875,10.54979,0.875,9L0.875,9ZM2.125,9Q2.125,11.8477,4.1386400000000005,13.8614Q6.15228,15.875,9,15.875Q11.8477,15.875,13.8614,13.8614Q15.875,11.8477,15.875,9Q15.875,6.15228,13.8614,4.1386400000000005Q11.8477,2.125,9,2.125Q6.15228,2.125,4.1386400000000005,4.1386400000000005Q2.125,6.15228,2.125,9L2.125,9Z" fill="#A7ABB5" fill-opacity="1"/></g><g><g transform="matrix(0,-1,1,0,-2.4334716796875,21.9337158203125)"><line x1="9.7501220703125" y1="11.55859375" x2="13.500122308731079" y2="11.55859375" fill-opacity="0" stroke-opacity="1" stroke="#A7ABB5" fill="none" stroke-width="1.25" stroke-linecap="ROUND" stroke-linejoin="round"/></g><g><path d="M9.08675546875,6.92430640625C8.74701146875,6.92627640625,8.43984046875,6.72250640625,8.30955876875,6.4087264062500005C8.17927636875,6.09495240625,8.25178147875,5.73354040625,8.49300946875,5.49429340625C8.68918546875,5.28971400625,8.97563446875,5.19842810625,9.25400546875,5.25177790625L9.40453546875,5.30195360625C9.45590546875,5.31865410625,9.50400546875,5.34411740625,9.54669546875,5.37721740625L9.68050546875,5.47756840625C10.01032546875,5.80469440625,10.01032546875,6.33793640625,9.68050546875,6.66505640625C9.63936546875,6.70289640625,9.59454546875,6.73651640625,9.54669546875,6.76541640625C9.50400546875,6.7985064062500005,9.45590546875,6.82397640625,9.40453546875,6.84067640625L9.25400546875,6.92430640625L9.08675546875,6.92430640625Z" fill="#A7ABB5" fill-opacity="1"/></g></g></g></svg>